<svg width="54" height="54" viewBox="0 0 54 54" fill="none" xmlns="http://www.w3.org/2000/svg">
<rect width="54" height="54" rx="12" fill="#FFE297"/>
<mask id="mask0_50_3418" style="mask-type:alpha" maskUnits="userSpaceOnUse" x="4" y="9" width="45" height="45">
<rect x="4" y="9" width="45" height="45" rx="12" fill="#D9D9D9"/>
</mask>
<g mask="url(#mask0_50_3418)">
<path d="M18.3477 17.2374C20.3171 14.1665 22.9235 11.5257 25.9463 9.54508C26.017 9.49823 26.1003 9.46415 26.1836 9.44712L26.4625 9.39175C26.5416 9.37471 26.6208 9.37471 26.6999 9.39175L26.9788 9.44712C27.0621 9.46415 27.1454 9.49397 27.2161 9.54508C30.2389 11.5257 32.8453 14.1665 34.8147 17.2374C38.4037 17.2374 41.9927 18.0212 45.2694 19.5162C45.3485 19.5503 45.4193 19.6014 45.4776 19.6653L45.6733 19.874C45.7274 19.9336 45.7732 20.0018 45.8024 20.0784L45.9106 20.3468C45.9439 20.4277 45.9606 20.5129 45.9606 20.6023C45.9981 24.2739 45.2736 27.9539 43.8413 31.3231L43.9496 31.4381C46.1521 34.3387 47.7468 37.7206 48.6003 41.2857C48.6211 41.3708 48.6253 41.4603 48.6128 41.5455L48.5712 41.8351C48.5587 41.916 48.5337 41.9927 48.4921 42.0651L48.3505 42.3207C48.3089 42.3973 48.2506 42.4655 48.1839 42.5209C45.3694 44.8039 42.0843 46.4693 38.6077 47.3808L38.5911 47.368C38.2705 49.4806 37.5127 51.5208 36.3802 53.3183C36.351 53.3609 36.3177 53.3992 36.2761 53.429L36.1387 53.527C36.1012 53.5525 36.0596 53.5738 36.0138 53.5866L35.8514 53.6292C35.8015 53.642 35.7515 53.6462 35.7015 53.6377C33.6322 53.3311 31.6295 52.5772 29.8642 51.4356L23.1192 51.4144C21.358 52.5644 19.3553 53.3268 17.2902 53.6377C17.2402 53.6462 17.1902 53.642 17.1403 53.6292L16.9779 53.5909C16.9321 53.5781 16.8905 53.5611 16.853 53.5312L16.7156 53.4333C16.674 53.4035 16.6406 53.3651 16.6115 53.3225C15.4707 51.5336 14.7046 49.4934 14.3757 47.3808H14.3507C10.8741 46.4693 7.58486 44.8039 4.77444 42.5209C4.70782 42.4655 4.64953 42.3973 4.60789 42.3207L4.46633 42.0651C4.42886 41.9927 4.39971 41.916 4.38722 41.8351L4.34559 41.5455C4.3331 41.4603 4.33726 41.3708 4.35808 41.2857C5.21161 37.7206 6.80627 34.3387 9.0088 31.4381L9.11705 31.3231C7.68894 27.9539 6.96032 24.2739 6.99779 20.6023C6.99779 20.5129 7.01861 20.4277 7.04775 20.3468L7.15601 20.0784C7.18515 20.0018 7.23095 19.9336 7.28508 19.874L7.48077 19.6653C7.53906 19.6014 7.60984 19.5503 7.68894 19.5162C10.9657 18.0212 14.5547 17.2374 18.1437 17.2374" fill="#F39917"/>
<path d="M18.6806 17.4377C20.3044 14.9247 22.3487 12.6928 24.7136 10.8953C25.1841 10.5375 25.7504 9.99235 26.3166 9.82197C26.7621 9.68993 27.1035 9.92846 27.4616 10.1755C28.6857 11.0146 29.8307 11.9644 30.8924 13.0122C31.9541 14.06 32.9284 15.193 33.7944 16.4112C33.9984 16.7008 34.1941 16.9947 34.3898 17.2843C34.5855 17.574 34.6688 17.6166 35.0102 17.6293C35.8429 17.6592 36.6756 17.6847 37.5042 17.7742C39.128 17.9488 40.7351 18.2938 42.2923 18.7879C43.0292 19.0179 43.7537 19.2862 44.4657 19.5844C44.8987 19.7675 45.3858 19.9251 45.5399 20.4235C45.6481 20.7812 45.5898 21.2114 45.5815 21.5863C45.569 22.0463 45.544 22.502 45.5107 22.962C45.4358 23.9076 45.3109 24.8489 45.1318 25.7817C44.7821 27.6175 44.245 29.4107 43.5247 31.1272C43.4539 31.2933 43.4539 31.4679 43.583 31.6042C44.0493 32.0898 44.4157 32.7159 44.7821 33.2781C45.1943 33.917 45.5773 34.573 45.9313 35.2459C46.6682 36.643 47.2803 38.1082 47.7549 39.6203C47.9339 40.1953 48.292 40.9748 48.2337 41.5838C48.1838 42.1163 47.7549 42.3846 47.3635 42.6785C46.1394 43.607 44.8321 44.4248 43.4664 45.1191C41.8843 45.9198 40.2271 46.5417 38.5201 46.9975L38.8948 47.0997L38.8781 47.0869C38.6825 46.9165 38.2869 46.9421 38.237 47.2615C37.9955 48.7821 37.5541 50.2644 36.8838 51.6444C36.7214 51.9809 36.5424 52.3131 36.355 52.6368C36.2551 52.8115 36.1427 53.084 35.9636 53.182C35.718 53.3141 35.3474 53.1735 35.0976 53.1224C34.7062 53.0457 34.3149 52.9478 33.9318 52.837C33.224 52.6326 32.5287 52.3813 31.8625 52.0703C31.5544 51.9255 31.2505 51.7722 30.9548 51.6103C30.6592 51.4485 30.3137 51.1375 29.9889 51.0481C29.6641 50.9586 29.2644 51.031 28.948 51.031L24.4805 51.014C24.06 51.014 23.6144 50.9672 23.1939 51.0098C22.8442 51.0438 22.5402 51.3249 22.2363 51.4996C21.541 51.9 20.8165 52.2407 20.0671 52.5133C19.3176 52.7859 18.5432 53.0031 17.7563 53.1565C17.4857 53.2076 17.2025 53.3055 16.9694 53.1139C16.7237 52.9094 16.5488 52.4324 16.399 52.1513C15.5829 50.6307 15.0458 48.9823 14.771 47.2743C14.7419 47.1082 14.5545 46.9847 14.4004 46.9847C14.109 46.9847 13.7176 46.7887 13.4387 46.7036C13.0389 46.58 12.6392 46.448 12.2437 46.3032C11.5151 46.0391 10.7948 45.7367 10.0953 45.4002C8.71299 44.74 7.3848 43.9563 6.13989 43.0576C5.70688 42.7466 5.03654 42.4059 4.82836 41.8777C4.62018 41.3496 4.91164 40.7405 5.05736 40.2336C5.49454 38.7088 6.06911 37.2265 6.77276 35.8124C7.15164 35.05 7.568 34.3046 8.02183 33.5805C8.43819 32.9118 8.86704 32.1622 9.41663 31.5957C9.54987 31.4594 9.5457 31.2848 9.47492 31.1187C8.70466 29.2829 8.14258 27.3534 7.797 25.3856C7.62213 24.3889 7.50555 23.3794 7.45142 22.3657C7.41395 21.7311 7.20577 20.7046 7.58882 20.1466C7.71789 19.9592 7.90109 19.8655 8.09261 19.7675C8.57559 19.5247 9.1002 19.3416 9.60816 19.1542C10.5117 18.8219 11.436 18.5408 12.3728 18.3151C14.2755 17.8551 16.2241 17.6293 18.1768 17.6208C18.6723 17.6208 18.6723 16.8328 18.1768 16.8371C14.8085 16.8499 11.4443 17.5101 8.32577 18.8219C7.85113 19.0221 7.3848 19.1883 7.04339 19.5929C6.73112 19.9592 6.63536 20.4235 6.63536 20.892C6.63536 22.6 6.8019 24.308 7.1225 25.9819C7.48473 27.8858 8.0593 29.7344 8.80875 31.5148L8.86704 31.0377C8.37574 31.5488 7.98436 32.2005 7.59715 32.7968C7.11833 33.538 6.67283 34.3004 6.26896 35.0841C5.47372 36.6302 4.8242 38.2573 4.3329 39.9312C4.1497 40.5573 3.89572 41.2048 4.02479 41.865C4.12055 42.3633 4.41617 42.7083 4.79922 43.015C6.15238 44.0841 7.60131 45.0169 9.13351 45.7963C9.96622 46.218 10.8239 46.5971 11.6941 46.9293C12.1688 47.1125 12.6517 47.2786 13.1389 47.4277C13.5219 47.5469 13.9882 47.7641 14.3879 47.7641L14.0174 47.4745C14.2755 49.0632 14.7585 50.6009 15.4663 52.0363C15.7411 52.59 16.0492 53.395 16.553 53.7698C16.961 54.0722 17.3857 54.0083 17.8562 53.9231C19.3718 53.642 20.8415 53.1224 22.2072 52.394C22.5111 52.2322 22.89 51.934 23.1523 51.8105C23.1481 51.8105 23.1814 51.7977 23.2314 51.7892C23.4188 51.7466 23.6686 51.7892 23.8601 51.7892L28.6649 51.8062H29.5309C29.6225 51.8062 29.789 51.7764 29.8765 51.8062C29.8265 51.7892 30.1013 52.0107 30.1596 52.0448C30.347 52.1555 30.5343 52.262 30.7259 52.3642C31.0798 52.5516 31.442 52.7263 31.8084 52.8881C32.5162 53.1991 33.2448 53.4589 33.9943 53.6591C34.6105 53.8252 35.4765 54.1489 36.1135 53.953C36.7048 53.7698 36.9754 53.1224 37.2502 52.6113C38.1162 51.0098 38.6949 49.2634 38.9822 47.4575L38.341 47.6321C38.5742 47.8365 38.8115 47.7301 39.078 47.6534C39.5402 47.5256 39.9981 47.3851 40.452 47.2275C41.2514 46.9549 42.0341 46.6439 42.8044 46.2947C44.4199 45.5663 45.9604 44.6676 47.3968 43.6155C47.9173 43.2365 48.5293 42.8744 48.8291 42.2739C49.0664 41.8011 49.029 41.3112 48.8999 40.8086C48.4627 39.0879 47.8507 37.4139 47.0887 35.8167C46.6557 34.9095 46.1727 34.0278 45.6398 33.1759C45.186 32.4518 44.7197 31.6468 44.1284 31.0335L44.1867 31.5105C45.5066 28.3671 46.256 24.998 46.3476 21.5777C46.3643 21.0198 46.4059 20.4831 46.1811 19.9635C45.9854 19.5205 45.6356 19.2351 45.2026 19.0477C43.6704 18.3705 42.0799 17.838 40.452 17.4675C38.6033 17.0501 36.7131 16.8414 34.8186 16.8328L35.1517 17.0288C33.3406 14.2261 31.0381 11.7813 28.3526 9.83901C27.8696 9.48974 27.4033 9.09789 26.8079 9.00418C26.2708 8.92325 25.8295 9.13622 25.3923 9.43437C24.0391 10.3544 22.7692 11.4064 21.6076 12.565C20.2586 13.9152 19.0595 15.4145 18.0186 17.0245C17.7438 17.4462 18.41 17.8423 18.6806 17.4206V17.4377Z" fill="#040000"/>
<path d="M33.7821 45.8303C37.0713 50.3197 37.9499 56.3424 36.0721 61.526H36.0929C36.7091 61.7176 37.1754 62.2543 37.2504 62.8464C37.2587 62.9273 37.2629 63.0082 37.2379 63.0849C37.1879 63.2382 37.0339 63.3447 36.8715 63.4043C36.6592 63.481 36.426 63.498 36.197 63.5066C35.5183 63.5279 34.7064 63.5066 33.9778 63.4938L28.9315 62.9954C28.8774 61.9945 24.106 61.8582 23.9477 62.9954L19.0222 63.4682C18.2936 63.4853 17.4817 63.5066 16.803 63.481C16.574 63.4725 16.3409 63.4555 16.1285 63.3788C15.9661 63.3192 15.8121 63.2127 15.7621 63.0593C15.7372 62.9827 15.7413 62.9017 15.7496 62.8208C15.8204 62.2288 16.2909 61.6921 16.9071 61.5004L16.8988 61.4834C15.0169 56.5255 15.9703 50.2771 19.2595 45.9794L33.7821 45.8346V45.8303Z" fill="#F8D47C"/>
<path d="M33.4532 46.0305C36.6425 50.4304 37.546 56.2614 35.7057 61.4237C35.6182 61.6665 35.8431 61.9221 36.0762 61.9221C36.3094 61.9221 36.655 62.3523 36.7507 62.5269C37.0464 63.0764 36.5551 63.1104 36.1137 63.1232C35.4059 63.1445 34.6856 63.153 33.982 63.1062C33.5365 63.0764 33.091 63.0167 32.6454 62.9741L28.9399 62.6078L29.3229 62.9997C29.1897 61.871 27.3577 61.8241 26.5375 61.8071C25.7172 61.7901 23.8062 61.7858 23.5855 62.8975L23.9561 62.6078L20.3088 62.9571C19.8841 62.9997 19.4594 63.0508 19.0305 63.0806C18.3269 63.1275 17.6024 63.119 16.8988 63.0977C16.5324 63.0849 15.9994 63.0977 16.2284 62.5823C16.3825 62.2373 16.6781 62.0073 17.0195 61.8838C17.2652 61.7943 17.3651 61.5473 17.2485 61.3087C16.7197 60.2056 16.5157 58.7872 16.4033 57.5776C16.2826 56.2529 16.32 54.907 16.5199 53.5908C16.9196 50.9458 17.9355 48.3817 19.5427 46.2605L19.272 46.3755C23.5189 46.3329 27.7657 46.2903 32.0084 46.2477C32.6038 46.2435 33.1992 46.235 33.7946 46.2307C34.2859 46.2264 34.2901 45.4427 33.7946 45.447C30.7094 45.4768 27.62 45.5109 24.5348 45.5407L19.7758 45.5875C19.6301 45.5875 19.4802 45.579 19.3303 45.5918C18.9473 45.6259 18.7641 46.0092 18.5559 46.3116C17.6024 47.6789 16.878 49.2122 16.3742 50.8137C15.8162 52.5984 15.5415 54.4853 15.5706 56.3594C15.5997 58.1015 15.8246 60.1246 16.5823 61.7091L16.8113 61.1341C16.1951 61.3599 15.6539 61.8028 15.4499 62.463C15.2458 63.1232 15.5248 63.6556 16.1993 63.8218C16.9779 64.0134 17.8647 63.9027 18.66 63.8856C18.9306 63.8814 19.1887 63.8601 19.4552 63.8345L23.9561 63.4043C24.1143 63.3873 24.2891 63.2936 24.3266 63.1147C24.3724 62.8804 24.7929 62.791 24.9969 62.7399C25.4633 62.6206 25.9546 62.5951 26.4375 62.5993C26.9205 62.6036 27.4077 62.6419 27.8823 62.7569C28.0447 62.7953 28.2154 62.8378 28.3653 62.9188C28.4236 62.9486 28.5693 63.0849 28.561 63.0125C28.5901 63.2382 28.715 63.383 28.944 63.4043L33.5781 63.8601C33.8404 63.8856 34.0944 63.9027 34.3608 63.9112C35.1811 63.9282 36.1928 64.0816 36.9839 63.8005C38.4037 63.2979 37.2254 61.1511 36.0846 61.1511L36.4551 61.6495C38.3579 56.3168 37.4252 50.2004 34.1277 45.6514C33.8362 45.251 33.1701 45.6429 33.4657 46.0475L33.4532 46.0305Z" fill="#040000"/>
<path d="M28.994 46.891C29.8683 46.908 34.5982 46.4267 37.7209 43.1428C41.8678 38.7812 40.1982 32.5626 39.9359 31.5744C39.8568 31.2805 37.9748 24.7083 31.4755 22.3189C30.0515 21.795 29.7101 21.7481 28.511 21.697L24.7305 21.6288C23.7312 21.7566 23.4106 21.9653 23.0151 22.0761C21.8784 22.3998 17.1944 23.8906 14.5547 28.6993C14.1092 29.5086 10.6742 36.0169 14.3965 41.7031C17.6024 46.5971 23.4897 46.8697 24.1226 46.891" fill="#F8D47C"/>
<path d="M28.994 46.891C29.8683 46.908 34.5982 46.4267 37.7209 43.1428C41.8678 38.7812 40.1982 32.5626 39.9359 31.5744C39.8568 31.2805 37.9748 24.7083 31.4755 22.3189C30.0515 21.795 29.7101 21.7481 28.511 21.697L24.7305 21.6288C23.7312 21.7566 23.4106 21.9653 23.0151 22.0761C21.8784 22.3998 17.1944 23.8906 14.5547 28.6993C14.1092 29.5086 10.6742 36.0169 14.3965 41.7031C17.6024 46.5971 23.4897 46.8697 24.1226 46.891" stroke="#040000" stroke-width="0.37" stroke-linecap="round" stroke-linejoin="round"/>
<path d="M24.6472 21.599C23.648 21.7268 23.3274 21.9355 22.9318 22.0462C21.7952 22.3699 17.1111 23.8607 14.4714 28.6695C14.0259 29.4788 10.591 35.987 14.3132 41.6732C17.5192 46.5672 23.4065 46.8398 24.0393 46.8611" fill="#F8D47C"/>
<path d="M24.0393 47.2189H24.031C23.3523 47.1976 17.2985 46.8781 14.0217 41.8734C10.2912 36.1744 13.4846 29.7258 14.1675 28.4906C16.7072 23.8692 21.079 22.1996 22.8402 21.697C22.936 21.6714 23.0317 21.6331 23.1317 21.599C23.4439 21.484 23.8353 21.3392 24.6056 21.2412C24.8013 21.2199 24.9761 21.3562 25.0011 21.5564C25.0261 21.7566 24.8887 21.9355 24.693 21.961C24.0018 22.0505 23.6646 22.174 23.369 22.2805C23.2524 22.3231 23.14 22.3614 23.0276 22.3955C21.3496 22.8725 17.1902 24.4613 14.7795 28.8484C14.1383 30.0197 11.1031 36.1276 14.6088 41.473C17.6899 46.1754 23.4065 46.4778 24.0518 46.4991C24.2475 46.5033 24.4015 46.6737 24.3974 46.8696C24.3932 47.0656 24.235 47.2232 24.0435 47.2232L24.0393 47.2189Z" fill="#040000"/>
<path d="M28.9107 46.8569C29.7851 46.8739 34.5149 46.3926 37.6376 43.1087C41.7845 38.7471 40.1149 32.5285 39.8526 31.5403C39.7735 31.2464 37.8916 24.6743 31.3922 22.2848C29.9683 21.7609 29.6268 21.714 28.4277 21.6629" fill="#F8D47C"/>
<path d="M28.969 47.2232C28.9482 47.2232 28.9274 47.2232 28.9065 47.2232C28.7109 47.2232 28.5568 47.0528 28.561 46.8526C28.561 46.6525 28.7275 46.4991 28.9232 46.4991C29.9641 46.5247 34.4399 45.9667 37.3919 42.8574C41.0059 39.0538 40.0816 33.7424 39.5195 31.6383C39.5029 31.5701 37.6667 24.9767 31.2798 22.6298C29.9058 22.1229 29.6144 22.0803 28.4194 22.0292C28.2237 22.0207 28.0738 21.8546 28.078 21.6544C28.0863 21.4542 28.2487 21.3009 28.4444 21.3051C29.6935 21.3563 30.064 21.4116 31.5171 21.944C38.2455 24.4187 40.1232 31.157 40.1982 31.4424C40.7936 33.67 41.7679 39.2881 37.8957 43.36C34.823 46.5928 30.1806 47.2189 28.969 47.2189V47.2232Z" fill="#040000"/>
<path d="M21.9783 35.8465C23.319 35.8465 23.319 33.7169 21.9783 33.7169C20.6377 33.7169 20.6377 35.8465 21.9783 35.8465Z" fill="#040000"/>
<path d="M30.8676 35.8465C32.2083 35.8465 32.2083 33.7169 30.8676 33.7169C29.527 33.7169 29.527 35.8465 30.8676 35.8465Z" fill="#040000"/>
<path d="M26.0878 36.8262H26.5833C26.6457 36.8262 26.6999 36.8177 26.754 36.7879C26.8081 36.7708 26.8581 36.7367 26.8955 36.6942C26.9372 36.6516 26.9705 36.6047 26.9871 36.5493C27.0163 36.494 27.0288 36.4386 27.0246 36.3747C27.0205 36.2597 26.983 36.1362 26.8955 36.0553C26.8081 35.9743 26.704 35.9232 26.5833 35.9232H26.0878C26.0254 35.9232 25.9712 35.9317 25.9171 35.9616C25.863 35.9786 25.813 36.0127 25.7755 36.0553C25.7339 36.0979 25.7006 36.1447 25.6839 36.2001C25.6548 36.2554 25.6423 36.3108 25.6465 36.3747C25.6506 36.4897 25.6881 36.6132 25.7755 36.6942C25.863 36.7751 25.9671 36.8262 26.0878 36.8262Z" fill="#040000"/>
<path d="M21.5495 32.1536C21.6827 32.1962 21.816 32.2388 21.945 32.2899C22.0075 32.3112 22.0658 32.3367 22.1282 32.3623C22.1616 32.3751 22.199 32.3921 22.2323 32.4049C22.1782 32.3836 22.2656 32.4219 22.2781 32.4262C22.528 32.5369 22.7736 32.6647 23.0109 32.8053C23.1442 32.8862 23.3398 32.8436 23.4148 32.6988C23.4897 32.554 23.4523 32.3708 23.3107 32.2856C22.8069 31.9875 22.2656 31.749 21.7077 31.5743C21.562 31.5275 21.3788 31.6297 21.3455 31.783C21.308 31.9449 21.3955 32.1067 21.5495 32.1536Z" fill="white"/>
<path d="M7.11436 41.7926C7.65146 41.6648 8.13444 41.6095 8.69652 41.6095C8.85058 41.6095 9.00047 41.4689 8.99214 41.3071C8.98381 41.1452 8.86307 41.0046 8.69652 41.0046C8.11362 41.0046 7.52656 41.077 6.95615 41.2091C6.80626 41.2432 6.70217 41.4306 6.75213 41.5796C6.80209 41.7415 6.95198 41.8267 7.11436 41.7884V41.7926Z" fill="#FAD8A3"/>
<path d="M6.86873 40.8171C6.98947 40.7532 7.11022 40.6936 7.23512 40.6382C7.24345 40.6382 7.34754 40.5914 7.29758 40.6084C7.32256 40.5956 7.3517 40.5871 7.37669 40.5743C7.4433 40.5488 7.50992 40.519 7.5807 40.4934C7.83884 40.3955 8.10115 40.3145 8.36762 40.2464C8.51751 40.208 8.6216 40.0291 8.57163 39.8758C8.52167 39.7225 8.36762 39.6245 8.2094 39.6671C7.64315 39.8119 7.09356 40.0249 6.57311 40.2932C6.43572 40.3656 6.38575 40.5743 6.46902 40.7064C6.56062 40.8512 6.72717 40.8895 6.87289 40.8129L6.86873 40.8171Z" fill="#FAD8A3"/>
<path d="M46.1146 41.2088C45.5442 41.0768 44.9613 41.0044 44.3743 41.0044C44.2202 41.0044 44.0703 41.145 44.0786 41.3068C44.087 41.4687 44.2077 41.6092 44.3743 41.6092C44.9405 41.6092 45.4193 41.6646 45.9564 41.7924C46.1063 41.8264 46.2812 41.7455 46.3186 41.5837C46.352 41.4303 46.2728 41.2514 46.1146 41.2131V41.2088Z" fill="#FAD8A3"/>
<path d="M46.5018 40.2974C45.9814 40.029 45.4318 39.8161 44.8655 39.6713C44.7156 39.6329 44.5366 39.7224 44.5033 39.88C44.47 40.0376 44.5491 40.2122 44.7073 40.2505C44.9738 40.3187 45.2361 40.3996 45.4942 40.4976C45.5567 40.5231 45.6191 40.5444 45.6816 40.57C45.7149 40.5828 45.7441 40.5955 45.7732 40.6083C45.7232 40.587 45.8107 40.6253 45.8232 40.6296C45.9522 40.685 46.0771 40.7489 46.202 40.8128C46.3394 40.8852 46.5268 40.8553 46.6059 40.7063C46.6767 40.57 46.6475 40.3698 46.5018 40.2931V40.2974Z" fill="#FAD8A3"/>
<path d="M44.0162 21.3136C43.6248 21.7566 43.2793 22.2422 42.9961 22.766C42.9212 22.9023 42.9587 23.1025 43.1002 23.1792C43.2418 23.2559 43.425 23.2175 43.5041 23.0727C43.6373 22.8257 43.783 22.5872 43.9454 22.3572C43.9829 22.3018 44.0204 22.2464 44.062 22.1953C44.0703 22.1825 44.0828 22.1697 44.0912 22.157C44.1161 22.1229 44.062 22.1953 44.0912 22.157C44.1161 22.1271 44.1369 22.0973 44.1619 22.0675C44.2494 21.9568 44.341 21.846 44.4326 21.7438C44.5367 21.6245 44.5533 21.4329 44.4326 21.3179C44.3201 21.2114 44.1245 21.1944 44.0162 21.3179V21.3136Z" fill="#FAD8A3"/>
<path d="M43.425 20.5213C42.942 20.8578 42.4923 21.2454 42.0968 21.6799C41.9927 21.7949 41.976 21.9951 42.0968 22.1058C42.2175 22.2166 42.4007 22.2293 42.5131 22.1058C42.7005 21.9014 42.9004 21.7054 43.1085 21.518C43.1585 21.4712 43.2126 21.4286 43.2668 21.386C43.2917 21.3647 43.3209 21.3434 43.3459 21.3221C43.3584 21.3136 43.3708 21.3008 43.3833 21.2923C43.35 21.3136 43.3584 21.3093 43.3833 21.2923C43.4957 21.2071 43.6082 21.1219 43.7247 21.041C43.8538 20.9515 43.9204 20.7727 43.8288 20.6278C43.7456 20.4958 43.5624 20.4234 43.425 20.5213Z" fill="#FAD8A3"/>
<path d="M9.02129 21.7394C9.11289 21.8417 9.20033 21.9481 9.2836 22.0546C9.30858 22.0844 9.3294 22.1143 9.35438 22.1441C9.37103 22.1654 9.37103 22.1654 9.35438 22.1441C9.36271 22.1569 9.3752 22.1696 9.38353 22.1824C9.42516 22.2378 9.4668 22.2974 9.50843 22.357C9.66665 22.587 9.81654 22.8256 9.94977 23.0726C10.0247 23.2089 10.2204 23.2685 10.3536 23.1791C10.4869 23.0896 10.541 22.915 10.4577 22.7659C10.1746 22.2463 9.82903 21.7565 9.43765 21.3135C9.33356 21.1942 9.12538 21.1985 9.02129 21.3135C8.90888 21.437 8.90888 21.6159 9.02129 21.7394Z" fill="#FAD8A3"/>
<path d="M9.73325 21.0452C9.84567 21.1219 9.95808 21.2028 10.0663 21.288C10.0663 21.288 10.1246 21.3348 10.0913 21.305C10.0622 21.2795 10.0996 21.3135 10.108 21.3178C10.133 21.3391 10.1621 21.3604 10.1871 21.3817C10.2412 21.4285 10.2995 21.4754 10.3536 21.5222C10.5618 21.7054 10.7617 21.9013 10.949 22.11C11.0531 22.225 11.2613 22.2293 11.3654 22.11C11.4778 21.9865 11.4778 21.8076 11.3654 21.6841C10.9657 21.2454 10.5202 20.8578 10.0372 20.5256C9.90812 20.4361 9.7041 20.4957 9.63332 20.632C9.55422 20.7854 9.60418 20.9515 9.73741 21.0452H9.73325Z" fill="#FAD8A3"/>
<path d="M31.1216 31.617C30.572 31.8257 30.0474 32.0898 29.5603 32.4177C29.4312 32.5029 29.3646 32.6903 29.4562 32.8309C29.5394 32.9629 29.7226 33.0311 29.86 32.9374C30.089 32.784 30.3264 32.6392 30.572 32.5157C30.6927 32.4518 30.8135 32.3922 30.9384 32.3368C30.9675 32.324 30.9967 32.3112 31.0258 32.2985C30.9675 32.324 31.0716 32.2814 31.08 32.2772C31.1466 32.2516 31.2132 32.2218 31.2798 32.1962C31.4255 32.1409 31.538 31.9875 31.4838 31.8257C31.438 31.6809 31.2757 31.5573 31.1216 31.617Z" fill="white"/>
<path d="M28.511 21.6076C29.4853 22.9237 29.4395 24.1291 29.4562 25.539C29.4728 26.8551 29.6435 27.7666 29.706 29.0827L29.6352 29.1083C28.8608 28.742 28.1238 28.2862 27.5867 27.6772C27.0496 27.0681 26.7249 26.2971 26.8331 25.539L26.8123 25.4708C25.9338 26.7018 25.5216 28.1798 25.6548 29.6237V29.6024C24.7763 28.9933 23.7396 28.0775 23.3982 27.2172C23.2108 26.7486 22.9693 25.999 22.9735 25.5092C22.986 23.9588 23.5022 22.2252 24.6472 21.4117" fill="#F39917"/>
<path d="M28.1821 21.8034C28.9274 22.8427 29.0565 23.9544 29.0731 25.2109C29.0898 26.4674 29.2605 27.7878 29.3271 29.0826L29.6102 28.7036L29.5394 28.7291L29.835 28.7675C29.1147 28.4224 28.4028 28.0093 27.8615 27.4002C27.6034 27.1063 27.391 26.757 27.2828 26.378C27.1828 26.0372 27.2828 25.6922 27.1912 25.3685C27.0954 25.0235 26.6749 25.0065 26.4917 25.2748C25.609 26.5398 25.1552 28.0732 25.2801 29.6278C25.3217 30.1262 26.0878 30.1304 26.0462 29.6278C26.017 29.2701 25.6257 29.1125 25.3759 28.9165C25.0386 28.6482 24.7138 28.3586 24.4182 28.0391C23.8645 27.4343 23.5564 26.7145 23.4023 25.9052C23.2649 25.1726 23.4273 24.3335 23.6438 23.635C23.8603 22.9364 24.235 22.2038 24.8471 21.7566C25.2426 21.4627 24.8596 20.7812 24.4599 21.0794C23.1317 22.0633 22.5155 23.98 22.5987 25.6155C22.6987 27.545 23.9977 28.9123 25.4675 29.9473L25.2759 29.6065V29.6278H26.0462C25.9338 28.1924 26.3376 26.838 27.1537 25.6709L26.4542 25.5772C26.5 25.7391 26.4417 25.9904 26.4625 26.1735C26.4959 26.4248 26.5583 26.6591 26.6541 26.8933C26.8373 27.3491 27.1162 27.7537 27.4535 28.0987C27.7907 28.4437 28.1988 28.7504 28.6151 29.006C28.9274 29.1976 29.4395 29.6065 29.8142 29.466C29.9683 29.4064 30.1057 29.2701 30.0974 29.0869C30.0266 27.7069 29.8642 26.3439 29.8392 24.9596C29.8184 23.6648 29.6102 22.4764 28.8483 21.4116C28.561 21.0069 27.8948 21.3988 28.1863 21.8077L28.1821 21.8034Z" fill="#040000"/>
<path d="M24.4848 38.0187C24.3308 38.3339 24.4807 38.7215 24.6847 38.9686C25.0094 39.3604 25.5549 39.3945 26.0087 39.2752C26.3668 39.1815 26.5958 38.8876 26.6249 38.5128C26.6374 38.3552 26.4792 38.2061 26.3293 38.2104C26.1586 38.2189 26.0503 38.3424 26.0337 38.5128C26.0337 38.5554 26.042 38.4702 26.0378 38.4745C26.0378 38.483 26.0378 38.4958 26.0337 38.5043C26.0295 38.5213 26.0254 38.5384 26.0212 38.5597C26.0212 38.5682 26.017 38.5767 26.0129 38.5852C26.0004 38.6321 26.017 38.5639 26.0212 38.5597C26.0087 38.5682 25.992 38.6108 25.9879 38.6236C25.9629 38.6704 25.9962 38.6065 26.0004 38.6065C26.0004 38.6065 25.9712 38.6363 25.9754 38.6363C25.9712 38.6406 25.9587 38.6491 25.9546 38.6576C25.9379 38.6875 26.0004 38.6363 25.9671 38.6491C25.9462 38.6576 25.9254 38.6832 25.9046 38.6875C25.9129 38.6875 25.9671 38.6662 25.9129 38.6789C25.8963 38.6789 25.8796 38.6875 25.863 38.6917C25.8047 38.7088 25.7464 38.7173 25.6881 38.73C25.6465 38.7386 25.7422 38.73 25.7006 38.73C25.6881 38.73 25.6798 38.73 25.6673 38.73C25.6381 38.73 25.6048 38.7343 25.5757 38.7343C25.5299 38.7343 25.4882 38.7343 25.4466 38.7343C25.3717 38.7343 25.4966 38.7471 25.4466 38.7343C25.4216 38.73 25.3966 38.7258 25.3758 38.7173C25.3425 38.7087 25.3092 38.696 25.2717 38.6832C25.2343 38.6704 25.3342 38.713 25.3009 38.696C25.2926 38.696 25.2884 38.6917 25.2801 38.6875C25.2593 38.6789 25.2426 38.6662 25.2259 38.6576C25.2135 38.6491 25.201 38.6406 25.1843 38.6321C25.176 38.6278 25.1718 38.6193 25.1635 38.615C25.1635 38.615 25.2218 38.6662 25.1926 38.6363C25.1677 38.615 25.1468 38.5937 25.1219 38.5682C25.1135 38.5554 25.1052 38.5469 25.0927 38.5341C25.0677 38.5043 25.1385 38.6023 25.101 38.5469C25.0844 38.5213 25.0677 38.4958 25.0552 38.4702C25.0469 38.4575 25.0427 38.4447 25.0386 38.4362C25.0094 38.3808 25.0594 38.4915 25.0469 38.4575C25.0386 38.4319 25.0261 38.4021 25.0219 38.3765C25.0136 38.351 25.0094 38.3254 25.0053 38.2999C24.9969 38.27 25.0136 38.3936 25.0094 38.3297C25.0094 38.3169 25.0094 38.3084 25.0094 38.2956C25.0094 38.2828 25.0094 38.27 25.0094 38.2615C25.0094 38.2104 24.9928 38.3424 25.0011 38.3084C25.0178 38.253 25.0178 38.2658 24.9886 38.3254C25.0552 38.1849 25.0303 37.9932 24.8845 37.9123C24.7513 37.8398 24.5556 37.8697 24.4807 38.0187H24.4848Z" fill="#040000"/>
<path d="M27.6825 38.3254C27.6825 38.3254 27.645 38.236 27.67 38.2999C27.6866 38.3467 27.6617 38.2487 27.6658 38.2487C27.6658 38.2487 27.6658 38.2743 27.6658 38.2786C27.6658 38.2999 27.6658 38.3212 27.6658 38.3424C27.6658 38.3936 27.6783 38.2615 27.67 38.3041C27.67 38.3169 27.6658 38.3297 27.6617 38.3424C27.6575 38.368 27.6492 38.3936 27.6408 38.4149C27.6408 38.4276 27.6325 38.4404 27.6284 38.4489C27.6075 38.5128 27.6617 38.385 27.6325 38.4319C27.62 38.4575 27.6075 38.4787 27.595 38.5043C27.5867 38.5171 27.5826 38.5299 27.5742 38.5384C27.5701 38.5469 27.5659 38.5512 27.5617 38.5597C27.5368 38.598 27.6034 38.5086 27.5826 38.5341C27.5617 38.5554 27.5451 38.581 27.5243 38.598C27.5118 38.6108 27.5034 38.6193 27.491 38.6278C27.441 38.6747 27.5409 38.5937 27.491 38.6278C27.4618 38.6491 27.4327 38.6662 27.4035 38.6832C27.391 38.6875 27.3369 38.713 27.3869 38.6917C27.4368 38.6704 27.3744 38.696 27.3577 38.7002C27.3203 38.713 27.2786 38.7215 27.2411 38.73C27.2328 38.73 27.2245 38.73 27.2162 38.7343C27.1787 38.7428 27.2828 38.7343 27.2411 38.7343C27.2162 38.7343 27.1912 38.7343 27.1704 38.7386C27.1204 38.7386 27.0704 38.7386 27.0246 38.7386C27.0121 38.7386 26.9372 38.7258 26.9788 38.7343C27.0205 38.7428 26.9747 38.7343 26.9622 38.7343C26.9414 38.7343 26.9247 38.7258 26.9039 38.7215C26.8706 38.713 26.8414 38.7088 26.8081 38.7002C26.7915 38.696 26.7748 38.6917 26.7582 38.6875C26.7082 38.6747 26.7665 38.6875 26.7665 38.696C26.7623 38.7088 26.6707 38.6236 26.7082 38.6662C26.7374 38.696 26.6874 38.6363 26.6749 38.6278C26.6458 38.6065 26.6999 38.6747 26.6874 38.6449C26.6832 38.6321 26.6707 38.6193 26.6624 38.6065C26.6624 38.598 26.6541 38.5895 26.6499 38.581C26.6291 38.5554 26.6707 38.6449 26.6582 38.598C26.6499 38.5767 26.6458 38.5554 26.6416 38.5341C26.6416 38.5256 26.6416 38.5128 26.6374 38.5043C26.6249 38.4532 26.6458 38.581 26.6374 38.5299C26.6249 38.3723 26.5125 38.2189 26.3418 38.2274C26.1919 38.236 26.0337 38.3595 26.0462 38.5299C26.0753 38.8578 26.2502 39.1432 26.5583 39.2582C26.8206 39.3562 27.1287 39.3817 27.3994 39.3264C27.7866 39.2497 28.1072 38.943 28.2113 38.5554C28.2612 38.3808 28.2654 38.1934 28.1863 38.0315C28.1155 37.891 27.9115 37.8398 27.7824 37.925C27.6408 38.0187 27.6034 38.1849 27.6783 38.3382L27.6825 38.3254Z" fill="#040000"/>
<path d="M26.042 36.3406C26.0503 37.0646 26.0503 37.793 26.0337 38.5171C26.0337 38.6789 26.1711 38.8195 26.3293 38.8195C26.4875 38.8195 26.6208 38.6832 26.6249 38.5171C26.6374 37.793 26.6416 37.0646 26.6332 36.3406C26.6332 36.1787 26.5 36.0381 26.3376 36.0381C26.1753 36.0381 26.042 36.1744 26.042 36.3406Z" fill="#040000"/>
<path d="M26.5958 39.0324C26.6541 39.3519 26.7873 39.65 26.983 39.9056C27.0288 39.9652 27.137 39.9439 27.1703 39.8801C27.2869 39.6586 27.4035 39.4413 27.5201 39.2199C27.5492 39.1645 27.5326 39.0878 27.4784 39.0537C27.4243 39.0197 27.3494 39.041 27.3161 39.0963C27.1995 39.3178 27.0829 39.535 26.9663 39.7565L27.1537 39.731C26.9871 39.5137 26.8789 39.2454 26.8289 38.9643C26.8164 38.9004 26.7415 38.8621 26.6832 38.8791C26.6166 38.8961 26.5874 38.9643 26.5999 39.0282L26.5958 39.0324Z" fill="#040000"/>
<path d="M36.9589 26.2715C36.9589 25.9393 38.0498 24.5806 37.6792 22.7789C37.4794 21.8035 37.2462 19.8697 35.0728 18.9753C33.2284 18.2171 30.7052 19.0818 29.8725 19.6696C29.148 20.1764 28.6567 20.9814 28.3486 21.6629L29.6393 21.795C30.2264 21.8759 31.0799 22.2252 31.6212 22.4765L33.1409 23.0941L35.6099 24.8361L36.9589 26.2758V26.2715Z" fill="#F1CE7B"/>
<path d="M37.2504 26.2715C37.2753 25.9946 37.5834 25.5559 37.7 25.262C37.9207 24.6913 38.0581 24.0822 38.0498 23.4688C38.0331 22.5701 37.7833 21.5436 37.3961 20.7386C36.1928 18.2341 33.2034 17.9999 30.8926 18.8432C29.581 19.3202 28.69 20.219 28.0946 21.5138C27.9947 21.731 28.1155 21.944 28.3486 21.9696C29.1147 22.0462 29.835 22.1016 30.5678 22.3657C31.3006 22.6298 32.0625 22.979 32.8078 23.2814C32.8536 23.3027 33.0784 23.4007 33.0243 23.3709C32.9577 23.3325 33.1242 23.4475 33.1451 23.4646C33.424 23.669 33.7113 23.865 33.9986 24.0651L34.9687 24.7509C35.0811 24.8276 35.1894 24.9085 35.3018 24.9852C35.3351 25.0065 35.5183 25.1598 35.4017 25.0533C35.8764 25.4963 36.3011 26.0159 36.7466 26.4887C37.0089 26.7698 37.4252 26.3439 37.1629 26.0628C36.7299 25.6028 36.3177 25.1044 35.8597 24.67C35.4767 24.3079 34.9854 24.0311 34.5565 23.7287C34.1277 23.4262 33.6613 23.0088 33.1617 22.7788C32.4997 22.4764 31.8127 22.2166 31.1382 21.944C30.2097 21.5649 29.3271 21.4627 28.3445 21.3647L28.5984 21.8205C29.0772 20.7769 29.7601 19.9464 30.8218 19.5119C31.8835 19.0775 33.2158 18.8176 34.3858 19.0817C36.3802 19.529 37.4169 21.501 37.4502 23.4731C37.4627 24.1163 37.2878 24.7424 37.0297 25.3259C36.8965 25.6283 36.6841 25.9393 36.655 26.2757C36.6217 26.6633 37.2129 26.6591 37.2462 26.2757L37.2504 26.2715Z" fill="#040000"/>
<path d="M16.0411 26.2715C16.0411 25.9392 14.9502 24.5805 15.3208 22.7788C15.5206 21.8034 15.7538 19.8697 17.9272 18.9752C19.7717 18.2171 22.2948 19.0817 23.1275 19.6695C23.852 20.1764 24.3807 20.828 24.6888 21.5095L23.3607 21.7949C22.7736 21.8758 21.9201 22.2251 21.3788 22.4764L19.8591 23.094L17.3901 24.8361L16.0411 26.2757V26.2715Z" fill="#F1CE7B"/>
<path d="M16.3367 26.2715C16.3117 26.0074 16.1702 25.7689 16.0577 25.5346C15.8371 25.0661 15.6539 24.5805 15.5789 24.0651C15.454 23.226 15.6622 22.272 15.9412 21.4755C16.2951 20.4617 17.0237 19.6738 18.0063 19.2691C19.1221 18.8091 20.4128 18.9497 21.5412 19.2904C22.8069 19.6738 23.852 20.4234 24.4349 21.6671L24.6097 21.2242C23.8811 21.3817 23.1192 21.4925 22.4155 21.7353C21.612 22.0121 20.825 22.3784 20.034 22.7021C19.5718 22.8896 19.1929 23.2005 18.7807 23.4901C18.2644 23.8564 17.694 24.1887 17.2111 24.5975C16.7281 25.0064 16.2826 25.5815 15.8329 26.0628C15.5706 26.3439 15.987 26.7698 16.2493 26.4887C16.674 26.0329 17.107 25.5857 17.5275 25.1257C17.6482 24.9937 17.5108 25.1214 17.5774 25.0661C17.6607 24.9979 17.7565 24.9426 17.8439 24.8787L18.814 24.1929L19.7342 23.5455C19.8175 23.4859 19.8966 23.4262 19.984 23.3709C20.034 23.3368 19.9673 23.3709 19.9465 23.3794C19.9882 23.3581 20.034 23.3453 20.0756 23.3283C20.7709 23.0471 21.4537 22.7447 22.1491 22.4721C22.9943 22.1399 23.8853 21.9951 24.768 21.8034C24.9678 21.7608 25.0219 21.5223 24.9428 21.3605C23.8561 19.0476 20.9583 18.0169 18.585 18.4684C17.44 18.6856 16.3825 19.4012 15.7788 20.4191C15.3208 21.1901 15.1043 22.1229 14.9877 23.0088C14.8961 23.6946 14.9919 24.3931 15.2209 25.0448C15.3166 25.3131 15.429 25.5772 15.5539 25.837C15.6122 25.9605 15.7413 26.1692 15.7496 26.2715C15.7829 26.6548 16.3742 26.6591 16.3409 26.2715H16.3367Z" fill="#040000"/>
<path d="M17.6191 24.7339C17.4609 24.5039 17.2818 23.3411 17.4609 22.4509C17.6399 21.5607 18.0021 21.1688 18.6725 20.7386C18.9889 20.5342 19.9465 20.4405 20.8084 20.7173C21.612 20.9772 22.4322 21.6927 22.707 22.0633L19.9673 23.2261L17.6191 24.7382V24.7339Z" fill="#FCEDCD"/>
<path d="M17.8731 24.5848C17.7523 24.3846 17.7315 24.0694 17.7065 23.8437C17.669 23.4391 17.6607 23.0174 17.7273 22.617C17.8397 21.944 18.1437 21.4585 18.6974 21.0836C19.2512 20.7088 20.1214 20.8153 20.7293 21.0112C21.3913 21.2285 22.0699 21.714 22.4946 22.2805L22.6237 21.7779L20.2671 22.7746C19.6259 23.0472 19.0722 23.4476 18.4851 23.8224L17.465 24.4783C17.1444 24.687 17.44 25.2067 17.7648 24.998C18.4643 24.5465 19.1679 24.095 19.8674 23.6435C19.9257 23.6052 19.984 23.5711 20.0381 23.5328C20.0673 23.5115 20.188 23.4391 20.0423 23.5157C20.1339 23.4689 20.2338 23.4348 20.3254 23.3965L21.7202 22.8044L22.7778 22.3572C22.9984 22.2635 23.0526 22.042 22.9068 21.8546C22.5196 21.3435 21.9409 20.9218 21.3746 20.6407C20.7043 20.3042 19.9299 20.1849 19.1887 20.2829C18.6267 20.3596 18.1395 20.6662 17.7606 21.0964C17.3318 21.5862 17.1528 22.2337 17.0986 22.8768C17.0653 23.2772 17.082 23.6776 17.1361 24.078C17.1736 24.3463 17.211 24.6615 17.3568 24.8958C17.5608 25.2237 18.0687 24.9213 17.8647 24.5891L17.8731 24.5848Z" fill="#040000"/>
<path d="M18.8598 38.9217C19.5635 38.5682 20.3171 38.3297 21.0915 38.1976C21.1873 38.1806 21.2372 38.0613 21.2164 37.9762C21.1873 37.8739 21.0915 37.8356 20.9999 37.8484C20.1964 37.9804 19.4178 38.2402 18.685 38.6065C18.481 38.7088 18.66 39.0197 18.864 38.9175L18.8598 38.9217Z" fill="#040000"/>
<path d="M19.6218 41.0088C20.1381 40.3912 20.7834 39.8971 21.5079 39.5649C21.5953 39.5265 21.6161 39.3945 21.5703 39.3178C21.5162 39.2241 21.4163 39.2113 21.3288 39.2539C20.5794 39.5989 19.9049 40.1143 19.3678 40.7532C19.3053 40.8256 19.297 40.9364 19.3678 41.0088C19.4302 41.0727 19.5552 41.0855 19.6176 41.0088H19.6218Z" fill="#040000"/>
<path d="M34.4067 38.5683C33.6739 38.202 32.8953 37.9421 32.0917 37.8101C31.996 37.7931 31.9002 37.8357 31.8752 37.9379C31.8502 38.0231 31.9044 38.1466 32.0001 38.1594C32.7745 38.2872 33.524 38.5299 34.2318 38.8835C34.4358 38.9857 34.6149 38.6748 34.4108 38.5725L34.4067 38.5683Z" fill="#040000"/>
<path d="M33.7113 40.7064C33.1784 40.0675 32.5039 39.5521 31.7503 39.2071C31.6629 39.1688 31.5588 39.1816 31.5088 39.271C31.463 39.3477 31.4838 39.4797 31.5713 39.5181C32.2999 39.8503 32.9411 40.3401 33.4574 40.962C33.5198 41.0344 33.6447 41.0259 33.7072 40.962C33.778 40.8896 33.7696 40.7788 33.7072 40.7064H33.7113Z" fill="#040000"/>
<path d="M35.6058 24.8318C35.764 24.6018 36.0055 23.2814 35.8264 22.3869C35.6474 21.4925 35.2852 21.1049 34.6148 20.6747C34.2984 20.4702 33.3408 20.3765 32.4789 20.6534C31.6753 20.9132 31.0175 21.6245 30.7469 21.9951L32.6413 22.864C32.9702 23.0131 33.2866 23.1962 33.5823 23.4049L35.6016 24.8318H35.6058Z" fill="#FCEDCD"/>
<path d="M35.8639 24.9852C35.9763 24.8063 36.0221 24.5763 36.0637 24.3761C36.1345 24.0311 36.172 23.6818 36.1886 23.3283C36.2136 22.651 36.122 21.9142 35.7515 21.3306C35.4642 20.8749 34.9604 20.4234 34.4399 20.2743C33.7405 20.0784 32.8911 20.1551 32.2207 20.4277C31.5504 20.7003 30.9467 21.2369 30.497 21.8375C30.4054 21.9568 30.4679 22.191 30.6011 22.2507C31.2215 22.536 31.8419 22.8172 32.4622 23.1068C33.2367 23.4646 33.9195 24.0055 34.6148 24.4953L35.46 25.0916C35.7723 25.3131 36.0679 24.7892 35.7598 24.572C35.1686 24.1546 34.5773 23.7372 33.9861 23.3198C33.3324 22.8597 32.6371 22.5318 31.9168 22.1996L30.9009 21.731L31.005 22.1442C31.4338 21.5692 32.0459 21.0751 32.7329 20.8919C33.1367 20.7855 33.5656 20.7514 33.9778 20.7982C34.2901 20.8323 34.5024 20.9388 34.7522 21.1262C35.2935 21.5351 35.5475 22.1442 35.5891 22.8214C35.6141 23.1962 35.5891 23.5796 35.535 23.9501C35.5017 24.1801 35.4559 24.5124 35.3518 24.6742C35.1477 25.0022 35.6557 25.3046 35.8597 24.9809L35.8639 24.9852Z" fill="#040000"/>
<path d="M22.5488 58.3869V57.1943C22.5488 53.5185 24.1393 50.5114 26.0878 50.5114H26.7207C28.6651 50.5114 30.2597 53.5185 30.2597 57.1943V58.3869C30.2597 62.0627 22.5529 62.0627 22.5529 58.3869H22.5488Z" fill="#FCEDCD"/>
<path d="M19.4969 53.3353C18.4768 55.465 19.0056 58.8852 19.4802 60.7423C19.6551 61.4195 20.4712 63.0211 21.079 64.0561V64.0859C20.8667 64.2179 20.925 64.3755 20.7959 64.5757C20.7293 64.6779 20.6752 64.7972 20.6835 64.9165C20.696 65.155 20.9416 65.3254 21.1831 65.4063C21.5329 65.5255 21.6786 65.5554 22.0533 65.5468C22.9943 65.5255 23.9644 65.402 24.768 64.9548C24.9845 64.8313 25.1968 64.6737 25.2801 64.4522C25.3925 64.154 25.2052 63.792 24.8846 63.6855L24.8971 63.5876C25.2176 62.642 25.0636 61.6112 24.8596 60.6316C24.539 59.0897 23.6938 56.3808 22.8944 54.9752" fill="#F8D47C"/>
<path d="M19.168 53.1394C18.3227 54.9752 18.4435 57.1432 18.7516 59.0982C18.8807 59.9075 19.0306 60.7338 19.3428 61.4919C19.5302 61.9434 19.7425 62.3864 19.9674 62.8209C20.0881 63.0594 20.2172 63.2979 20.3462 63.5364C20.4087 63.6514 20.4712 63.7622 20.5336 63.8772C20.5503 63.907 20.7168 64.2307 20.7002 64.0859L20.8126 63.809C20.3213 64.2137 20.1089 65.0996 20.6377 65.5468C21.2706 66.0792 22.2823 65.9685 23.0318 65.8748C23.7812 65.7811 24.7555 65.5852 25.3509 65.0187C25.8921 64.499 25.7589 63.6685 25.0886 63.349L25.2634 63.792C25.3176 63.4172 25.4383 63.0636 25.4675 62.6846C25.5008 62.2118 25.4508 61.739 25.38 61.2747C25.2676 60.5336 25.0844 59.8052 24.8804 59.0854C24.4682 57.6159 23.9811 56.1124 23.2358 54.7792C22.9901 54.3405 22.3281 54.7366 22.5738 55.1753C23.2608 56.4106 23.7063 57.7906 24.0976 59.1451C24.285 59.7925 24.4515 60.4441 24.5723 61.1086C24.6556 61.5686 24.718 62.0329 24.7055 62.5014C24.693 62.8805 24.5764 63.217 24.5223 63.5875C24.4973 63.7494 24.5348 63.9538 24.6972 64.0305C25.3509 64.3414 24.2808 64.7759 24.0393 64.8611C23.6271 65.0059 23.1983 65.0826 22.7653 65.1209C22.3323 65.1592 20.7543 65.3211 21.2622 64.4607C21.3871 64.2477 21.5079 64.1838 21.4288 63.907C21.3497 63.6301 21.1082 63.332 20.9666 63.0722C20.6335 62.4631 20.3129 61.8369 20.0465 61.1938C19.601 60.1162 19.4427 58.8554 19.347 57.7011C19.2304 56.3211 19.2387 54.8176 19.83 53.5398C20.0381 53.084 19.3761 52.6879 19.168 53.1436V53.1394Z" fill="#040000"/>
<path d="M33.32 53.3353C34.1568 55.4309 33.7696 58.9151 33.2284 60.7338C32.8828 61.9051 32.4498 62.889 31.9043 63.9539V63.9837C32.125 64.1029 32.1167 64.269 32.2541 64.465C32.3249 64.5672 32.3873 64.6779 32.3873 64.7972C32.3873 65.0357 32.354 65.2189 32.1167 65.3126C31.7711 65.4489 31.3881 65.4787 31.0133 65.4872C30.0724 65.5128 29.0981 65.4361 28.2695 65.0272C28.0447 64.9165 27.824 64.7674 27.7283 64.5502C27.5992 64.2605 27.7657 63.89 28.078 63.7664L28.0572 63.6685C27.6825 62.7399 27.7741 61.7049 27.924 60.7168C28.1571 59.1621 29.173 56.0783 29.7476 54.6685" fill="#F8D47C"/>
<path d="M32.9494 53.4418C33.4074 54.6387 33.4615 55.9506 33.4033 57.2199C33.345 58.4891 33.1618 59.6519 32.8037 60.8147C32.5789 61.5388 32.3041 62.2459 31.9835 62.9316C31.8544 63.2042 31.5588 63.6004 31.5296 63.907C31.5047 64.1754 31.6629 64.252 31.8044 64.448C31.921 64.6056 32.0168 64.8143 31.8419 65.0017C31.7337 65.1167 31.3464 65.0869 31.2049 65.0954C30.8468 65.1167 30.4887 65.1124 30.1307 65.0911C29.7559 65.0656 29.3812 65.0102 29.019 64.908C28.7983 64.8441 27.6533 64.4522 28.2737 64.1157C28.4278 64.0305 28.4861 63.8389 28.4486 63.6728C28.357 63.2426 28.2071 62.8635 28.1863 62.412C28.1613 61.8838 28.2154 61.3514 28.2945 60.8318C28.3945 60.1886 28.5568 59.5582 28.7275 58.9364C29.1148 57.5308 29.5686 56.1337 30.1182 54.7878C30.3055 54.3235 29.5644 54.1191 29.3771 54.5791C28.7942 56.0187 28.3112 57.5095 27.9115 59.013C27.7283 59.7031 27.5784 60.3931 27.491 61.1001C27.4243 61.6283 27.3869 62.1607 27.441 62.6889C27.4826 63.1063 27.6284 63.4768 27.7116 63.8772L27.8865 63.4342C27.237 63.7878 27.1162 64.6141 27.6825 65.1124C28.3237 65.6747 29.3188 65.8237 30.1307 65.8748C30.801 65.9174 32.1084 66.0537 32.5872 65.4404C33.0285 64.8782 32.5997 64.005 32.0959 63.6472L32.2874 63.988C32.2874 63.9113 32.5455 63.5322 32.6038 63.4087C32.7204 63.1659 32.8328 62.9189 32.9369 62.6676C33.1409 62.1863 33.3241 61.7007 33.4865 61.2023C33.7488 60.3803 33.9195 59.5327 34.0361 58.6766C34.2693 56.9004 34.3401 54.9283 33.6905 53.2289C33.5115 52.7646 32.7704 52.9648 32.9494 53.4376V53.4418Z" fill="#040000"/>
</g>
</svg>
