<svg width="22" height="22" viewBox="0 0 22 22" fill="none" xmlns="http://www.w3.org/2000/svg">
<path d="M2.75 10.0833V2.75H10.0833V10.0833H2.75ZM4.58333 8.25H8.25V4.58333H4.58333V8.25ZM2.75 19.25V11.9167H10.0833V19.25H2.75ZM4.58333 17.4167H8.25V13.75H4.58333V17.4167ZM11.9167 10.0833V2.75H19.25V10.0833H11.9167ZM13.75 8.25H17.4167V4.58333H13.75V8.25ZM17.4167 19.25V17.4167H19.25V19.25H17.4167ZM11.9167 13.75V11.9167H13.75V13.75H11.9167ZM13.75 15.5833V13.75H15.5833V15.5833H13.75ZM11.9167 17.4167V15.5833H13.75V17.4167H11.9167ZM13.75 19.25V17.4167H15.5833V19.25H13.75ZM15.5833 17.4167V15.5833H17.4167V17.4167H15.5833ZM15.5833 13.75V11.9167H17.4167V13.75H15.5833ZM17.4167 15.5833V13.75H19.25V15.5833H17.4167Z" fill="black"/>
</svg>
