<svg width="16" height="16" viewBox="0 0 16 16" fill="none" xmlns="http://www.w3.org/2000/svg">
<path d="M0.160004 7.99998C0.896957 6.55439 2.01924 5.34071 3.40282 4.49305C4.7864 3.6454 6.37741 3.19678 8 3.19678C9.6226 3.19678 11.2136 3.6454 12.5972 4.49305C13.9808 5.34071 15.103 6.55439 15.84 7.99998C15.103 9.44556 13.9808 10.6593 12.5972 11.5069C11.2136 12.3546 9.6226 12.8032 8 12.8032C6.37741 12.8032 4.7864 12.3546 3.40282 11.5069C2.01924 10.6593 0.896957 9.44556 0.160004 7.99998ZM8 11.2C8.8487 11.2 9.66263 10.8628 10.2627 10.2627C10.8629 9.6626 11.2 8.84867 11.2 7.99998C11.2 7.15129 10.8629 6.33735 10.2627 5.73724C9.66263 5.13712 8.8487 4.79998 8 4.79998C7.15131 4.79998 6.33738 5.13712 5.73726 5.73724C5.13715 6.33735 4.8 7.15129 4.8 7.99998C4.8 8.84867 5.13715 9.6626 5.73726 10.2627C6.33738 10.8628 7.15131 11.2 8 11.2ZM8 9.59998C7.57566 9.59998 7.16869 9.43141 6.86863 9.13135C6.56857 8.83129 6.4 8.42432 6.4 7.99998C6.4 7.57563 6.56857 7.16867 6.86863 6.86861C7.16869 6.56855 7.57566 6.39998 8 6.39998C8.42435 6.39998 8.83132 6.56855 9.13137 6.86861C9.43143 7.16867 9.6 7.57563 9.6 7.99998C9.6 8.42432 9.43143 8.83129 9.13137 9.13135C8.83132 9.43141 8.42435 9.59998 8 9.59998Z" fill="black"/>
</svg>
