<svg width="157" height="120" viewBox="0 0 157 120" fill="none" xmlns="http://www.w3.org/2000/svg">
<g clip-path="url(#clip0_35_1994)">
<path d="M60.2 24.57C64.93 17.36 71.19 11.16 78.45 6.51C78.62 6.4 78.82 6.32 79.02 6.28L79.69 6.15C79.88 6.11 80.07 6.11 80.26 6.15L80.93 6.28C81.13 6.32 81.33 6.39 81.5 6.51C88.76 11.16 95.02 17.36 99.75 24.57C108.37 24.57 116.99 26.41 124.86 29.92C125.05 30 125.22 30.12 125.36 30.27L125.83 30.76C125.96 30.9 126.07 31.06 126.14 31.24L126.4 31.87C126.48 32.06 126.52 32.26 126.52 32.47C126.61 41.09 124.87 49.73 121.43 57.64L121.69 57.91C126.98 64.72 130.81 72.66 132.86 81.03C132.91 81.23 132.92 81.44 132.89 81.64L132.79 82.32C132.76 82.51 132.7 82.69 132.6 82.86L132.26 83.46C132.16 83.64 132.02 83.8 131.86 83.93C125.1 89.29 117.21 93.2 108.86 95.34L108.82 95.31C108.05 100.27 106.23 105.06 103.51 109.28C103.44 109.38 103.36 109.47 103.26 109.54L102.93 109.77C102.84 109.83 102.74 109.88 102.63 109.91L102.24 110.01C102.12 110.04 102 110.05 101.88 110.03C96.91 109.31 92.1 107.54 87.86 104.86L71.66 104.81C67.43 107.51 62.62 109.3 57.66 110.03C57.54 110.05 57.42 110.04 57.3 110.01L56.91 109.92C56.8 109.89 56.7 109.85 56.61 109.78L56.28 109.55C56.18 109.48 56.1 109.39 56.03 109.29C53.29 105.09 51.45 100.3 50.66 95.34H50.6C42.25 93.2 34.35 89.29 27.6 83.93C27.44 83.8 27.3 83.64 27.2 83.46L26.86 82.86C26.77 82.69 26.7 82.51 26.67 82.32L26.57 81.64C26.54 81.44 26.55 81.23 26.6 81.03C28.65 72.66 32.48 64.72 37.77 57.91L38.03 57.64C34.6 49.73 32.85 41.09 32.94 32.47C32.94 32.26 32.99 32.06 33.06 31.87L33.32 31.24C33.39 31.06 33.5 30.9 33.63 30.76L34.1 30.27C34.24 30.12 34.41 30 34.6 29.92C42.47 26.41 51.09 24.57 59.71 24.57" fill="#F39917"/>
<path d="M60.99 25.03C64.89 19.13 69.8 13.89 75.48 9.66995C76.61 8.82995 77.97 7.54995 79.33 7.14995C80.4 6.83995 81.22 7.39995 82.08 7.97995C85.02 9.94995 87.77 12.18 90.32 14.64C92.87 17.1 95.21 19.76 97.29 22.62C97.78 23.3 98.25 23.99 98.72 24.67C99.19 25.35 99.39 25.45 100.21 25.48C102.21 25.55 104.21 25.61 106.2 25.82C110.1 26.23 113.96 27.04 117.7 28.2C119.47 28.74 121.21 29.37 122.92 30.07C123.96 30.5 125.13 30.87 125.5 32.04C125.76 32.88 125.62 33.89 125.6 34.77C125.57 35.85 125.51 36.92 125.43 38C125.25 40.22 124.95 42.43 124.52 44.62C123.68 48.93 122.39 53.14 120.66 57.17C120.49 57.56 120.49 57.97 120.8 58.29C121.92 59.43 122.8 60.9 123.68 62.22C124.67 63.72 125.59 65.2599 126.44 66.84C128.21 70.1199 129.68 73.56 130.82 77.11C131.25 78.46 132.11 80.29 131.97 81.72C131.85 82.97 130.82 83.6 129.88 84.29C126.94 86.47 123.8 88.39 120.52 90.02C116.72 91.8999 112.74 93.36 108.64 94.43L109.54 94.67L109.5 94.64C109.03 94.24 108.08 94.3 107.96 95.05C107.38 98.62 106.32 102.1 104.71 105.34C104.32 106.13 103.89 106.91 103.44 107.67C103.2 108.08 102.93 108.72 102.5 108.95C101.91 109.26 101.02 108.93 100.42 108.81C99.48 108.63 98.54 108.4 97.62 108.14C95.92 107.66 94.25 107.07 92.65 106.34C91.91 106 91.18 105.64 90.47 105.26C89.76 104.88 88.93 104.15 88.15 103.94C87.37 103.73 86.41 103.9 85.65 103.9L74.92 103.86C73.91 103.86 72.84 103.75 71.83 103.85C70.99 103.93 70.26 104.59 69.53 105C67.86 105.94 66.12 106.74 64.32 107.38C62.52 108.02 60.66 108.53 58.77 108.89C58.12 109.01 57.44 109.24 56.88 108.79C56.29 108.31 55.87 107.19 55.51 106.53C53.55 102.96 52.26 99.09 51.6 95.08C51.53 94.69 51.08 94.4 50.71 94.4C50.01 94.4 49.07 93.9399 48.4 93.74C47.44 93.45 46.48 93.14 45.53 92.8C43.78 92.18 42.05 91.47 40.37 90.68C37.05 89.13 33.86 87.29 30.87 85.18C29.83 84.45 28.22 83.65 27.72 82.41C27.22 81.17 27.92 79.74 28.27 78.55C29.32 74.97 30.7 71.49 32.39 68.17C33.3 66.38 34.3 64.63 35.39 62.93C36.39 61.36 37.42 59.6 38.74 58.27C39.06 57.95 39.05 57.54 38.88 57.15C37.03 52.84 35.68 48.31 34.85 43.69C34.43 41.35 34.15 38.9799 34.02 36.6C33.93 35.11 33.43 32.7 34.35 31.39C34.66 30.95 35.1 30.73 35.56 30.5C36.72 29.93 37.98 29.5 39.2 29.06C41.37 28.28 43.59 27.62 45.84 27.09C50.41 26.01 55.09 25.48 59.78 25.46C60.97 25.46 60.97 23.61 59.78 23.62C51.69 23.65 43.61 25.2 36.12 28.28C34.98 28.75 33.86 29.14 33.04 30.09C32.29 30.95 32.06 32.04 32.06 33.14C32.06 37.15 32.46 41.16 33.23 45.09C34.1 49.56 35.48 53.9 37.28 58.08L37.42 56.96C36.24 58.16 35.3 59.69 34.37 61.09C33.22 62.83 32.15 64.62 31.18 66.46C29.27 70.09 27.71 73.91 26.53 77.84C26.09 79.31 25.48 80.8299 25.79 82.38C26.02 83.5499 26.73 84.36 27.65 85.08C30.9 87.59 34.38 89.78 38.06 91.61C40.06 92.6 42.12 93.49 44.21 94.27C45.35 94.7 46.51 95.09 47.68 95.44C48.6 95.72 49.72 96.23 50.68 96.23L49.79 95.55C50.41 99.28 51.57 102.89 53.27 106.26C53.93 107.56 54.67 109.45 55.88 110.33C56.86 111.04 57.88 110.89 59.01 110.69C62.65 110.03 66.18 108.81 69.46 107.1C70.19 106.72 71.1 106.02 71.73 105.73C71.72 105.73 71.8 105.7 71.92 105.68C72.37 105.58 72.97 105.68 73.43 105.68L84.97 105.72H87.05C87.27 105.72 87.67 105.65 87.88 105.72C87.76 105.68 88.42 106.2 88.56 106.28C89.01 106.54 89.46 106.79 89.92 107.03C90.77 107.47 91.64 107.88 92.52 108.26C94.22 108.99 95.97 109.6 97.77 110.07C99.25 110.46 101.33 111.22 102.86 110.76C104.28 110.33 104.93 108.81 105.59 107.61C107.67 103.85 109.06 99.75 109.75 95.51L108.21 95.92C108.77 96.4 109.34 96.15 109.98 95.97C111.09 95.67 112.19 95.34 113.28 94.97C115.2 94.33 117.08 93.6 118.93 92.78C122.81 91.07 126.51 88.96 129.96 86.49C131.21 85.6 132.68 84.75 133.4 83.34C133.97 82.2299 133.88 81.08 133.57 79.9C132.52 75.86 131.05 71.93 129.22 68.18C128.18 66.05 127.02 63.98 125.74 61.98C124.65 60.28 123.53 58.39 122.11 56.95L122.25 58.07C125.42 50.69 127.22 42.78 127.44 34.75C127.48 33.44 127.58 32.18 127.04 30.96C126.57 29.92 125.73 29.25 124.69 28.81C121.01 27.22 117.19 25.97 113.28 25.1C108.84 24.12 104.3 23.63 99.75 23.61L100.55 24.07C96.2 17.49 90.67 11.75 84.22 7.18995C83.06 6.36995 81.94 5.44995 80.51 5.22995C79.22 5.03995 78.16 5.53995 77.11 6.23995C73.86 8.39995 70.81 10.87 68.02 13.59C64.78 16.76 61.9 20.28 59.4 24.06C58.74 25.05 60.34 25.98 60.99 24.99V25.03Z" fill="#040000"/>
<path d="M85.76 94.19C87.86 94.23 99.22 93.1 106.72 85.39C116.68 75.15 112.67 60.55 112.04 58.23C111.85 57.54 107.33 42.11 91.72 36.5C88.3 35.27 87.48 35.16 84.6 35.04L75.52 34.88C73.12 35.18 72.35 35.67 71.4 35.93C68.67 36.69 57.42 40.19 51.08 51.48C50.01 53.38 41.76 68.66 50.7 82.01C58.4 93.5 72.54 94.14 74.06 94.19" fill="#F8D47C"/>
<path d="M85.76 94.19C87.86 94.23 99.22 93.1 106.72 85.39C116.68 75.15 112.67 60.55 112.04 58.23C111.85 57.54 107.33 42.11 91.72 36.5C88.3 35.27 87.48 35.16 84.6 35.04L75.52 34.88C73.12 35.18 72.35 35.67 71.4 35.93C68.67 36.69 57.42 40.19 51.08 51.48C50.01 53.38 41.76 68.66 50.7 82.01C58.4 93.5 72.54 94.14 74.06 94.19" stroke="#040000" stroke-width="0.37" stroke-linecap="round" stroke-linejoin="round"/>
<path d="M75.3299 34.7999C72.9299 35.0999 72.1599 35.5899 71.2099 35.8499C68.4799 36.6099 57.2299 40.1099 50.8899 51.3999C49.8199 53.2999 41.5699 68.5799 50.5099 81.9299C58.2099 93.4199 72.3499 94.0599 73.8699 94.1099" fill="#F8D47C"/>
<path d="M73.8699 94.96H73.8499C72.2199 94.91 57.6799 94.16 49.8099 82.41C40.8499 69.03 48.5199 53.89 50.1599 50.99C56.2599 40.14 66.7599 36.22 70.9899 35.04C71.2199 34.98 71.4499 34.89 71.6899 34.81C72.4399 34.54 73.3799 34.2 75.2299 33.97C75.6999 33.92 76.1199 34.24 76.1799 34.71C76.2399 35.18 75.9099 35.6 75.4399 35.66C73.7799 35.87 72.9699 36.16 72.2599 36.41C71.9799 36.51 71.7099 36.6 71.4399 36.68C67.4099 37.8 57.4199 41.53 51.6299 51.83C50.0899 54.58 42.7999 68.92 51.2199 81.47C58.6199 92.51 72.3499 93.22 73.8999 93.27C74.3699 93.28 74.7399 93.68 74.7299 94.14C74.7199 94.6 74.3399 94.97 73.8799 94.97L73.8699 94.96Z" fill="#040000"/>
<path d="M85.5699 94.11C87.6699 94.15 99.0299 93.02 106.53 85.31C116.49 75.07 112.48 60.47 111.85 58.15C111.66 57.46 107.14 42.03 91.5299 36.42C88.1099 35.19 87.2899 35.08 84.4099 34.96" fill="#F8D47C"/>
<path d="M85.6999 94.9599C85.6499 94.9599 85.5999 94.9599 85.5499 94.9599C85.0799 94.9599 84.7099 94.5599 84.7199 94.0899C84.7199 93.6199 85.1199 93.2599 85.5899 93.2599C88.0899 93.3199 98.8399 92.0099 105.93 84.7099C114.61 75.7799 112.39 63.3099 111.04 58.3699C111 58.2099 106.59 42.7299 91.2499 37.2199C87.9499 36.0299 87.2499 35.9299 84.3799 35.8099C83.9099 35.7899 83.5499 35.3999 83.5599 34.9299C83.5799 34.4599 83.9699 34.0999 84.4399 34.1099C87.4399 34.2299 88.3299 34.3599 91.8199 35.6099C107.98 41.4199 112.49 57.2399 112.67 57.9099C114.1 63.1399 116.44 76.3299 107.14 85.8899C99.7599 93.4799 88.6099 94.9499 85.6999 94.9499V94.9599Z" fill="#040000"/>
<path d="M78.79 70.5599H79.98C80.13 70.5599 80.26 70.5399 80.39 70.4699C80.52 70.4299 80.64 70.3499 80.73 70.2499C80.83 70.1499 80.91 70.0399 80.95 69.9099C81.02 69.7799 81.05 69.6499 81.04 69.4999C81.03 69.2299 80.94 68.9399 80.73 68.7499C80.52 68.5599 80.27 68.4399 79.98 68.4399H78.79C78.64 68.4399 78.51 68.4599 78.38 68.5299C78.25 68.5699 78.13 68.6499 78.04 68.7499C77.94 68.8499 77.86 68.9599 77.82 69.0899C77.75 69.2199 77.72 69.3499 77.73 69.4999C77.74 69.7699 77.83 70.0599 78.04 70.2499C78.25 70.4399 78.5 70.5599 78.79 70.5599Z" fill="#040000"/>
<path d="M67.89 59.58C68.21 59.68 68.53 59.78 68.84 59.9C68.99 59.95 69.13 60.01 69.28 60.07C69.36 60.1 69.45 60.14 69.53 60.17C69.4 60.12 69.61 60.21 69.64 60.22C70.24 60.48 70.83 60.78 71.4 61.11C71.72 61.3 72.19 61.2 72.37 60.86C72.55 60.52 72.46 60.09 72.12 59.89C70.91 59.19 69.61 58.63 68.27 58.22C67.92 58.11 67.48 58.35 67.4 58.71C67.31 59.09 67.52 59.47 67.89 59.58Z" fill="white"/>
<path d="M121.85 34.13C120.91 35.17 120.08 36.31 119.4 37.54C119.22 37.86 119.31 38.33 119.65 38.51C119.99 38.69 120.43 38.6 120.62 38.26C120.94 37.68 121.29 37.12 121.68 36.58C121.77 36.45 121.86 36.32 121.96 36.2C121.98 36.17 122.01 36.14 122.03 36.11C122.09 36.03 121.96 36.2 122.03 36.11C122.09 36.04 122.14 35.97 122.2 35.9C122.41 35.64 122.63 35.38 122.85 35.14C123.1 34.86 123.14 34.41 122.85 34.14C122.58 33.89 122.11 33.85 121.85 34.14V34.13Z" fill="#FAD8A3"/>
<path d="M120.42 32.28C119.26 33.07 118.18 33.98 117.23 35C116.98 35.27 116.94 35.74 117.23 36C117.52 36.26 117.96 36.29 118.23 36C118.68 35.52 119.16 35.06 119.66 34.62C119.78 34.51 119.91 34.41 120.04 34.31C120.1 34.26 120.17 34.21 120.23 34.16C120.26 34.14 120.29 34.11 120.32 34.09C120.24 34.14 120.26 34.13 120.32 34.09C120.59 33.89 120.86 33.69 121.14 33.5C121.45 33.29 121.61 32.87 121.39 32.53C121.19 32.22 120.75 32.05 120.42 32.28Z" fill="#FAD8A3"/>
<path d="M37.79 35.14C38.01 35.38 38.22 35.63 38.42 35.88C38.48 35.95 38.53 36.02 38.59 36.09C38.63 36.14 38.63 36.14 38.59 36.09C38.61 36.12 38.64 36.15 38.66 36.18C38.76 36.31 38.86 36.45 38.96 36.59C39.34 37.13 39.7 37.69 40.02 38.27C40.2 38.59 40.67 38.73 40.99 38.52C41.31 38.31 41.44 37.9 41.24 37.55C40.56 36.33 39.73 35.18 38.79 34.14C38.54 33.86 38.04 33.87 37.79 34.14C37.52 34.43 37.52 34.85 37.79 35.14Z" fill="#FAD8A3"/>
<path d="M39.5 33.5C39.77 33.68 40.04 33.87 40.3 34.07C40.3 34.07 40.44 34.18 40.36 34.11C40.29 34.05 40.38 34.13 40.4 34.14C40.46 34.19 40.53 34.24 40.59 34.29C40.72 34.4 40.86 34.51 40.99 34.62C41.49 35.05 41.97 35.51 42.42 36C42.67 36.27 43.17 36.28 43.42 36C43.69 35.71 43.69 35.29 43.42 35C42.46 33.97 41.39 33.06 40.23 32.28C39.92 32.07 39.43 32.21 39.26 32.53C39.07 32.89 39.19 33.28 39.51 33.5H39.5Z" fill="#FAD8A3"/>
<path d="M90.8699 58.32C89.5499 58.81 88.2899 59.43 87.1199 60.2C86.8099 60.4 86.6499 60.84 86.8699 61.17C87.0699 61.48 87.5099 61.64 87.8399 61.42C88.3899 61.06 88.9599 60.72 89.5499 60.43C89.8399 60.28 90.1299 60.14 90.4299 60.01C90.4999 59.98 90.5699 59.95 90.6399 59.92C90.4999 59.98 90.7499 59.88 90.7699 59.87C90.9299 59.81 91.0899 59.74 91.2499 59.68C91.5999 59.55 91.8699 59.19 91.7399 58.81C91.6299 58.47 91.2399 58.18 90.8699 58.32Z" fill="white"/>
<path d="M84.6099 34.82C86.9499 37.91 86.8399 40.74 86.8799 44.05C86.9199 47.14 87.3299 49.28 87.4799 52.37L87.3099 52.43C85.4499 51.57 83.6799 50.5 82.3899 49.07C81.0999 47.64 80.3199 45.83 80.5799 44.05L80.5299 43.89C78.4199 46.78 77.4299 50.25 77.7499 53.64V53.59C75.6399 52.16 73.1499 50.01 72.3299 47.99C71.8799 46.89 71.2999 45.13 71.3099 43.98C71.3399 40.34 72.5799 36.27 75.3299 34.36" fill="#F39917"/>
<path d="M83.8099 35.29C85.5999 37.73 85.9099 40.34 85.9499 43.29C85.9899 46.24 86.3999 49.34 86.5599 52.38L87.2399 51.49L87.0699 51.55L87.7799 51.64C86.0499 50.83 84.3399 49.86 83.0399 48.43C82.4199 47.74 81.9099 46.92 81.6499 46.03C81.4099 45.23 81.6499 44.42 81.4299 43.66C81.1999 42.85 80.1899 42.81 79.7499 43.44C77.6299 46.41 76.5399 50.01 76.8399 53.66C76.9399 54.83 78.7799 54.84 78.6799 53.66C78.6099 52.82 77.6699 52.45 77.0699 51.99C76.2599 51.36 75.4799 50.68 74.7699 49.93C73.4399 48.51 72.6999 46.82 72.3299 44.92C71.9999 43.2 72.3899 41.23 72.9099 39.59C73.4299 37.95 74.3299 36.23 75.7999 35.18C76.7499 34.49 75.8299 32.89 74.8699 33.59C71.6799 35.9 70.1999 40.4 70.3999 44.24C70.6399 48.77 73.7599 51.98 77.2899 54.41L76.8299 53.61V53.66H78.6799C78.4099 50.29 79.3799 47.11 81.3399 44.37L79.6599 44.15C79.7699 44.53 79.6299 45.12 79.6799 45.55C79.7599 46.14 79.9099 46.69 80.1399 47.24C80.5799 48.31 81.2499 49.26 82.0599 50.07C82.8699 50.88 83.8499 51.6 84.8499 52.2C85.5999 52.65 86.8299 53.61 87.7299 53.28C88.0999 53.14 88.4299 52.82 88.4099 52.39C88.2399 49.15 87.8499 45.95 87.7899 42.7C87.7399 39.66 87.2399 36.87 85.4099 34.37C84.7199 33.42 83.1199 34.34 83.8199 35.3L83.8099 35.29Z" fill="#040000"/>
<path d="M74.93 73.36C74.56 74.1 74.92 75.01 75.41 75.59C76.19 76.51 77.4999 76.59 78.5899 76.31C79.4499 76.09 80 75.4 80.07 74.52C80.1 74.15 79.72 73.8 79.36 73.81C78.95 73.83 78.69 74.12 78.65 74.52C78.65 74.62 78.67 74.42 78.66 74.43C78.66 74.45 78.66 74.48 78.65 74.5C78.64 74.54 78.63 74.58 78.62 74.63C78.62 74.65 78.61 74.67 78.6 74.69C78.57 74.8 78.61 74.64 78.62 74.63C78.59 74.65 78.55 74.75 78.54 74.78C78.48 74.89 78.56 74.74 78.57 74.74C78.57 74.74 78.5 74.81 78.51 74.81C78.5 74.82 78.47 74.84 78.46 74.86C78.42 74.93 78.57 74.81 78.49 74.84C78.44 74.86 78.3899 74.92 78.3399 74.93C78.3599 74.93 78.49 74.88 78.36 74.91C78.32 74.91 78.28 74.93 78.24 74.94C78.1 74.98 77.96 75 77.82 75.03C77.72 75.05 77.95 75.03 77.85 75.03C77.82 75.03 77.7999 75.03 77.7699 75.03C77.6999 75.03 77.62 75.04 77.55 75.04C77.44 75.04 77.34 75.04 77.24 75.04C77.06 75.04 77.36 75.07 77.24 75.04C77.18 75.03 77.12 75.02 77.07 75C76.99 74.98 76.91 74.95 76.82 74.92C76.73 74.89 76.97 74.99 76.89 74.95C76.87 74.95 76.8599 74.94 76.8399 74.93C76.7899 74.91 76.75 74.88 76.71 74.86C76.68 74.84 76.65 74.82 76.61 74.8C76.59 74.79 76.58 74.77 76.56 74.76C76.56 74.76 76.7 74.88 76.63 74.81C76.57 74.76 76.52 74.71 76.46 74.65C76.44 74.62 76.42 74.6 76.39 74.57C76.33 74.5 76.5 74.73 76.41 74.6C76.37 74.54 76.33 74.48 76.3 74.42C76.28 74.39 76.27 74.36 76.26 74.34C76.19 74.21 76.31 74.47 76.28 74.39C76.26 74.33 76.23 74.26 76.22 74.2C76.2 74.14 76.19 74.08 76.18 74.02C76.16 73.95 76.2 74.24 76.19 74.09C76.19 74.06 76.19 74.04 76.19 74.01C76.19 73.98 76.19 73.95 76.19 73.93C76.19 73.81 76.15 74.12 76.17 74.04C76.21 73.91 76.21 73.94 76.14 74.08C76.3 73.75 76.24 73.3 75.89 73.11C75.57 72.94 75.1 73.01 74.92 73.36H74.93Z" fill="#040000"/>
<path d="M78.68 69.42C78.7 71.12 78.7 72.83 78.66 74.53C78.66 74.91 78.99 75.24 79.37 75.24C79.75 75.24 80.07 74.92 80.08 74.53C80.11 72.83 80.12 71.12 80.1 69.42C80.1 69.04 79.78 68.71 79.39 68.71C79 68.71 78.68 69.03 78.68 69.42Z" fill="#040000"/>
<path d="M104.89 45.78C104.89 45 107.51 41.81 106.62 37.58C106.14 35.29 105.58 30.75 100.36 28.65C95.93 26.87 89.87 28.9 87.87 30.28C86.13 31.47 84.95 33.36 84.21 34.96L87.31 35.27C88.72 35.46 90.77 36.28 92.07 36.87L95.72 38.32L101.65 42.41L104.89 45.79V45.78Z" fill="#F1CE7B"/>
<path d="M105.6 45.78C105.66 45.13 106.4 44.1 106.68 43.41C107.21 42.07 107.54 40.64 107.52 39.2C107.48 37.09 106.88 34.68 105.95 32.79C103.06 26.91 95.88 26.36 90.33 28.34C87.18 29.46 85.04 31.57 83.61 34.61C83.37 35.12 83.66 35.62 84.22 35.68C86.06 35.86 87.79 35.99 89.55 36.61C91.31 37.23 93.14 38.05 94.93 38.76C95.04 38.81 95.58 39.04 95.45 38.97C95.29 38.88 95.69 39.15 95.74 39.19C96.41 39.67 97.1 40.13 97.79 40.6L100.12 42.21C100.39 42.39 100.65 42.58 100.92 42.76C101 42.81 101.44 43.17 101.16 42.92C102.3 43.96 103.32 45.18 104.39 46.29C105.02 46.95 106.02 45.95 105.39 45.29C104.35 44.21 103.36 43.04 102.26 42.02C101.34 41.17 100.16 40.52 99.13 39.81C98.1 39.1 96.98 38.12 95.78 37.58C94.19 36.87 92.54 36.26 90.92 35.62C88.69 34.73 86.57 34.49 84.21 34.26L84.82 35.33C85.97 32.88 87.61 30.93 90.16 29.91C92.71 28.89 95.91 28.28 98.72 28.9C103.51 29.95 106 34.58 106.08 39.21C106.11 40.72 105.69 42.19 105.07 43.56C104.75 44.27 104.24 45 104.17 45.79C104.09 46.7 105.51 46.69 105.59 45.79L105.6 45.78Z" fill="#040000"/>
<path d="M54.65 45.78C54.65 45 52.03 41.81 52.92 37.58C53.4 35.29 53.96 30.75 59.18 28.65C63.61 26.87 69.67 28.9 71.67 30.28C73.41 31.47 74.68 33 75.42 34.6L72.23 35.27C70.82 35.46 68.77 36.28 67.47 36.87L63.82 38.32L57.89 42.41L54.65 45.79V45.78Z" fill="#F1CE7B"/>
<path d="M55.36 45.78C55.3 45.16 54.96 44.6 54.69 44.05C54.16 42.95 53.72 41.81 53.54 40.6C53.24 38.63 53.74 36.39 54.41 34.52C55.26 32.14 57.01 30.29 59.37 29.34C62.05 28.26 65.15 28.59 67.86 29.39C70.9 30.29 73.41 32.05 74.81 34.97L75.23 33.93C73.48 34.3 71.65 34.56 69.96 35.13C68.03 35.78 66.14 36.64 64.24 37.4C63.13 37.84 62.22 38.57 61.23 39.25C59.99 40.11 58.62 40.89 57.46 41.85C56.3 42.81 55.23 44.16 54.15 45.29C53.52 45.95 54.52 46.95 55.15 46.29C56.17 45.22 57.21 44.17 58.22 43.09C58.51 42.78 58.18 43.08 58.34 42.95C58.54 42.79 58.77 42.66 58.98 42.51L61.31 40.9L63.52 39.38C63.72 39.24 63.91 39.1 64.12 38.97C64.24 38.89 64.08 38.97 64.03 38.99C64.13 38.94 64.24 38.91 64.34 38.87C66.01 38.21 67.65 37.5 69.32 36.86C71.35 36.08 73.49 35.74 75.61 35.29C76.09 35.19 76.22 34.63 76.03 34.25C73.42 28.82 66.46 26.4 60.76 27.46C58.01 27.97 55.47 29.65 54.02 32.04C52.92 33.85 52.4 36.04 52.12 38.12C51.9 39.73 52.13 41.37 52.68 42.9C52.91 43.53 53.18 44.15 53.48 44.76C53.62 45.05 53.93 45.54 53.95 45.78C54.03 46.68 55.45 46.69 55.37 45.78H55.36Z" fill="#040000"/>
<path d="M58.44 42.17C58.06 41.63 57.63 38.9 58.06 36.81C58.49 34.72 59.36 33.8 60.97 32.79C61.73 32.31 64.03 32.09 66.1 32.74C68.03 33.35 70 35.03 70.66 35.9L64.08 38.63L58.44 42.18V42.17Z" fill="#FCEDCD"/>
<path d="M59.05 41.81C58.76 41.34 58.71 40.6 58.65 40.07C58.56 39.12 58.54 38.13 58.7 37.19C58.97 35.61 59.7 34.47 61.03 33.59C62.36 32.71 64.45 32.96 65.91 33.42C67.5 33.93 69.13 35.07 70.15 36.4L70.46 35.22C68.57 36 66.69 36.78 64.8 37.56C63.26 38.2 61.93 39.14 60.52 40.02L58.07 41.56C57.3 42.05 58.01 43.27 58.79 42.78C60.47 41.72 62.16 40.66 63.84 39.6C63.98 39.51 64.12 39.43 64.25 39.34C64.32 39.29 64.61 39.12 64.26 39.3C64.48 39.19 64.72 39.11 64.94 39.02L68.29 37.63C69.14 37.28 69.98 36.93 70.83 36.58C71.36 36.36 71.49 35.84 71.14 35.4C70.21 34.2 68.82 33.21 67.46 32.55C65.85 31.76 63.99 31.48 62.21 31.71C60.86 31.89 59.69 32.61 58.78 33.62C57.75 34.77 57.32 36.29 57.19 37.8C57.11 38.74 57.15 39.68 57.28 40.62C57.37 41.25 57.46 41.99 57.81 42.54C58.3 43.31 59.52 42.6 59.03 41.82L59.05 41.81Z" fill="#040000"/>
<path d="M61.42 75.48C63.11 74.65 64.92 74.09 66.78 73.78C67.01 73.74 67.13 73.46 67.08 73.26C67.01 73.02 66.78 72.93 66.56 72.96C64.63 73.27 62.76 73.88 61 74.74C60.51 74.98 60.94 75.71 61.43 75.47L61.42 75.48Z" fill="#040000"/>
<path d="M63.26 80.38C64.5 78.93 66.05 77.77 67.79 76.99C68 76.9 68.05 76.59 67.94 76.41C67.81 76.19 67.57 76.16 67.36 76.26C65.56 77.07 63.94 78.28 62.65 79.78C62.5 79.95 62.48 80.21 62.65 80.38C62.8 80.53 63.1 80.56 63.25 80.38H63.26Z" fill="#040000"/>
<path d="M98.76 74.64C97 73.78 95.13 73.17 93.2 72.86C92.97 72.82 92.74 72.92 92.68 73.16C92.62 73.36 92.75 73.65 92.98 73.68C94.84 73.98 96.64 74.55 98.34 75.38C98.83 75.62 99.26 74.89 98.77 74.65L98.76 74.64Z" fill="#040000"/>
<path d="M97.1 79.67C95.82 78.17 94.2 76.96 92.39 76.15C92.18 76.06 91.93 76.09 91.81 76.3C91.7 76.48 91.75 76.79 91.96 76.88C93.71 77.66 95.25 78.81 96.49 80.27C96.64 80.44 96.94 80.42 97.09 80.27C97.26 80.1 97.24 79.84 97.09 79.67H97.1Z" fill="#040000"/>
<path d="M101.65 42.4C102.03 41.86 102.61 38.76 102.18 36.66C101.75 34.56 100.88 33.65 99.27 32.64C98.51 32.16 96.21 31.94 94.14 32.59C92.21 33.2 90.63 34.87 89.98 35.74L94.53 37.78C95.32 38.13 96.08 38.56 96.79 39.05L101.64 42.4H101.65Z" fill="#FCEDCD"/>
<path d="M102.26 42.76C102.53 42.34 102.64 41.8 102.74 41.33C102.91 40.52 103 39.7 103.04 38.87C103.1 37.28 102.88 35.55 101.99 34.18C101.3 33.11 100.09 32.05 98.84 31.7C97.16 31.24 95.12 31.42 93.51 32.06C91.9 32.7 90.45 33.96 89.37 35.37C89.15 35.65 89.3 36.2 89.62 36.34C91.11 37.01 92.6 37.67 94.09 38.35C95.95 39.19 97.59 40.46 99.26 41.61L101.29 43.01C102.04 43.53 102.75 42.3 102.01 41.79C100.59 40.81 99.17 39.83 97.75 38.85C96.18 37.77 94.51 37 92.78 36.22L90.34 35.12L90.59 36.09C91.62 34.74 93.09 33.58 94.74 33.15C95.71 32.9 96.74 32.82 97.73 32.93C98.48 33.01 98.99 33.26 99.59 33.7C100.89 34.66 101.5 36.09 101.6 37.68C101.66 38.56 101.6 39.46 101.47 40.33C101.39 40.87 101.28 41.65 101.03 42.03C100.54 42.8 101.76 43.51 102.25 42.75L102.26 42.76Z" fill="#040000"/>
<path d="M68.17 69.13C67.88 69.13 67.6 68.99 67.43 68.74C67.16 68.35 67.28 67.82 67.69 67.57L70.2 66L67.67 64.46C67.26 64.21 67.14 63.69 67.4 63.29C67.66 62.9 68.2 62.78 68.62 63.03L72.31 65.27C72.56 65.42 72.72 65.69 72.72 65.98C72.72 66.27 72.57 66.54 72.32 66.7L68.66 68.99C68.51 69.08 68.34 69.13 68.18 69.13H68.17Z" fill="#040000"/>
<path d="M91.09 69.13C91.38 69.13 91.66 68.99 91.83 68.74C92.1 68.35 91.98 67.82 91.57 67.57L89.06 66L91.59 64.46C92 64.21 92.12 63.69 91.86 63.29C91.6 62.9 91.06 62.78 90.64 63.03L86.95 65.27C86.7 65.42 86.54 65.69 86.54 65.98C86.54 66.27 86.69 66.54 86.94 66.7L90.6 68.99C90.75 69.08 90.92 69.13 91.08 69.13H91.09Z" fill="#040000"/>
<path d="M80.28 75.66C80.4 76.36 80.7 77.02 81.13 77.58C81.41 77.06 81.69 76.55 81.97 76.03" fill="white"/>
<path d="M80.01 75.74C80.15 76.49 80.47 77.19 80.94 77.79C81.05 77.93 81.31 77.88 81.39 77.73C81.67 77.21 81.95 76.7 82.23 76.18C82.3 76.05 82.26 75.87 82.13 75.79C82 75.71 81.82 75.76 81.74 75.89C81.46 76.41 81.18 76.92 80.9 77.44L81.35 77.38C80.95 76.87 80.69 76.24 80.57 75.58C80.54 75.43 80.36 75.34 80.22 75.38C80.06 75.42 79.99 75.58 80.02 75.73L80.01 75.74Z" fill="#040000"/>
<path d="M82.61 74.08C82.61 74.08 82.52 73.87 82.58 74.02C82.62 74.13 82.56 73.9 82.57 73.9C82.57 73.9 82.57 73.96 82.57 73.97C82.57 74.02 82.57 74.07 82.57 74.12C82.57 74.24 82.6 73.93 82.58 74.03C82.58 74.06 82.57 74.09 82.56 74.12C82.55 74.18 82.53 74.24 82.51 74.29C82.51 74.32 82.49 74.35 82.48 74.37C82.43 74.52 82.56 74.22 82.49 74.33C82.46 74.39 82.43 74.44 82.4 74.5C82.38 74.53 82.37 74.56 82.35 74.58C82.34 74.6 82.33 74.61 82.32 74.63C82.26 74.72 82.42 74.51 82.37 74.57C82.32 74.62 82.28 74.68 82.23 74.72C82.2 74.75 82.18 74.77 82.15 74.79C82.03 74.9 82.27 74.71 82.15 74.79C82.08 74.84 82.01 74.88 81.94 74.92C81.91 74.93 81.78 74.99 81.9 74.94C82.02 74.89 81.87 74.95 81.83 74.96C81.74 74.99 81.64 75.01 81.55 75.03C81.53 75.03 81.51 75.03 81.49 75.04C81.4 75.06 81.65 75.04 81.55 75.04C81.49 75.04 81.43 75.04 81.38 75.05C81.26 75.05 81.14 75.05 81.03 75.05C81 75.05 80.82 75.02 80.92 75.04C81.02 75.06 80.91 75.04 80.88 75.04C80.83 75.04 80.79 75.02 80.74 75.01C80.66 74.99 80.59 74.98 80.51 74.96C80.47 74.95 80.43 74.94 80.39 74.93C80.27 74.9 80.41 74.93 80.41 74.95C80.4 74.98 80.18 74.78 80.27 74.88C80.34 74.95 80.22 74.81 80.19 74.79C80.12 74.74 80.25 74.9 80.22 74.83C80.21 74.8 80.18 74.77 80.16 74.74C80.16 74.72 80.14 74.7 80.13 74.68C80.08 74.62 80.18 74.83 80.15 74.72C80.13 74.67 80.12 74.62 80.11 74.57C80.11 74.55 80.11 74.52 80.1 74.5C80.07 74.38 80.12 74.68 80.1 74.56C80.07 74.19 79.8 73.83 79.39 73.85C79.03 73.87 78.65 74.16 78.68 74.56C78.75 75.33 79.17 76 79.91 76.27C80.54 76.5 81.28 76.56 81.93 76.43C82.86 76.25 83.63 75.53 83.88 74.62C84 74.21 84.01 73.77 83.82 73.39C83.65 73.06 83.16 72.94 82.85 73.14C82.51 73.36 82.42 73.75 82.6 74.11L82.61 74.08Z" fill="#040000"/>
<path d="M5.99998 56.69C10.74 55.49 16.16 56.61 19.98 59.78C20.86 60.51 22.12 60.64 22.99 59.78C23.74 59.03 23.88 57.51 22.99 56.77C17.97 52.6 11.22 50.98 4.86998 52.59C3.75998 52.87 3.08998 54.12 3.38998 55.21C3.68998 56.3 4.88998 56.98 6.00998 56.69H5.99998Z" fill="#F5A518" stroke="#231815" stroke-width="0.99" stroke-miterlimit="10"/>
<path d="M25.24 50.82C23.31 48.15 20.78 45.96 17.79 44.56C17.12 44.24 16.23 44.35 15.85 45.07C15.52 45.7 15.64 46.67 16.36 47.01C17.03 47.33 17.68 47.68 18.31 48.07C18.62 48.26 18.91 48.46 19.21 48.67C19.36 48.78 19.52 48.89 19.67 49.01C19.52 48.89 19.59 48.95 19.7 49.03C19.77 49.09 19.85 49.15 19.92 49.21C20.48 49.67 21 50.16 21.5 50.69C21.76 50.97 22.01 51.25 22.26 51.54C22.37 51.67 22.48 51.81 22.58 51.94C22.68 52.07 22.44 51.75 22.6 51.97C22.67 52.06 22.74 52.15 22.8 52.25C23.23 52.85 24.05 53.2 24.74 52.76C25.33 52.38 25.71 51.46 25.25 50.82H25.24Z" fill="#F5C71D" stroke="#231815" stroke-miterlimit="10"/>
<path d="M130.7 22.71C130.79 22.47 130.9 22.23 130.99 21.99C131.05 21.83 130.86 22.3 130.96 22.07C130.99 21.99 131.03 21.91 131.06 21.83C131.14 21.66 131.21 21.49 131.29 21.32C131.65 20.54 132.06 19.78 132.5 19.05C133.74 16.99 135.18 15.3 137 13.63C137.57 13.11 137.52 12.15 137 11.63C136.44 11.07 135.56 11.11 135 11.63C131.85 14.49 129.5 18 127.96 21.95C127.68 22.66 128.27 23.51 128.95 23.69C129.75 23.91 130.42 23.42 130.69 22.7L130.7 22.71Z" fill="#F18C1A" stroke="#231815" stroke-width="0.99" stroke-miterlimit="10"/>
<path d="M138.44 26.23C138.56 26.01 138.68 25.8 138.82 25.59C138.89 25.49 138.96 25.38 139.03 25.28C139.14 25.12 139.32 25.05 139.01 25.29C139.36 25.02 139.64 24.56 139.96 24.25C140.12 24.1 140.29 23.95 140.46 23.81C140.85 23.48 140.08 24.07 140.5 23.78C140.58 23.72 140.66 23.66 140.74 23.61C141.15 23.33 141.58 23.07 142.03 22.85C142.12 22.81 142.21 22.76 142.3 22.72C142.74 22.5 142 22.83 142.27 22.72C142.5 22.63 142.73 22.54 142.97 22.47C143.42 22.33 143.88 22.21 144.34 22.13C144.37 22.13 144.86 22.04 144.5 22.1C144.14 22.16 144.59 22.1 144.66 22.09C144.91 22.07 145.15 22.06 145.4 22.06C145.62 22.06 145.85 22.06 146.07 22.08C146.19 22.08 146.32 22.1 146.44 22.11C146.88 22.15 145.99 22.04 146.47 22.11C147.56 22.29 148.81 21.82 149.09 20.63C149.32 19.6 148.78 18.21 147.61 18.01C142.57 17.17 137.25 19.52 134.77 24.08C134.24 25.06 134.5 26.44 135.53 26.99C136.56 27.54 137.87 27.27 138.44 26.23Z" fill="#EBC129" stroke="#231815" stroke-width="0.99" stroke-miterlimit="10"/>
<path d="M6.21998 47.67C6.37998 46.01 5.84998 44.3 4.78998 43.01C3.72998 41.72 2.13998 40.89 0.47998 40.73C2.13998 40.58 3.72998 39.74 4.78998 38.45C5.84998 37.16 6.37998 35.45 6.21998 33.79H6.27998C6.11998 35.45 6.64998 37.16 7.70998 38.45C8.76998 39.74 10.36 40.57 12.02 40.73C10.36 40.88 8.76998 41.72 7.70998 43.01C6.64998 44.3 6.11998 46.01 6.27998 47.67" fill="#EBB827"/>
<path d="M6.70998 47.67C6.99998 43.88 4.21998 40.6601 0.46998 40.2401V41.23C4.20998 40.81 6.99998 37.59 6.70998 33.8L6.20998 34.3H6.26998C6.09998 34.13 5.93998 33.97 5.76998 33.8C5.47998 37.59 8.25998 40.81 12.01 41.23V40.2401C8.26998 40.6601 5.47998 43.88 5.76998 47.67C5.81998 48.3 6.80998 48.31 6.75998 47.67C6.50998 44.46 8.76998 41.59 12 41.23C12.64 41.16 12.64 40.3101 12 40.2401C8.76998 39.8801 6.50998 37.01 6.75998 33.8C6.77998 33.53 6.51998 33.3 6.25998 33.3H6.19998C5.94998 33.3 5.67998 33.53 5.69998 33.8C5.94998 37.01 3.68998 39.8801 0.45998 40.2401C-0.18002 40.3101 -0.18002 41.16 0.45998 41.23C3.68998 41.59 5.94998 44.46 5.69998 47.67C5.64998 48.31 6.63998 48.3 6.68998 47.67H6.70998Z" fill="#040000"/>
<path d="M129.69 118.69C129.85 117.03 129.32 115.32 128.26 114.03C127.2 112.74 125.61 111.91 123.95 111.75C125.61 111.6 127.2 110.76 128.26 109.47C129.32 108.18 129.85 106.47 129.69 104.81H129.75C129.59 106.47 130.12 108.18 131.18 109.47C132.24 110.76 133.83 111.59 135.49 111.75C133.83 111.9 132.24 112.74 131.18 114.03C130.12 115.32 129.59 117.03 129.75 118.69" fill="#EBB827"/>
<path d="M130.19 118.69C130.48 114.9 127.7 111.68 123.95 111.26V112.25C127.69 111.83 130.48 108.61 130.19 104.82L129.69 105.32H129.75C129.58 105.15 129.42 104.99 129.25 104.82C128.96 108.61 131.74 111.83 135.49 112.25V111.26C131.75 111.68 128.96 114.9 129.25 118.69C129.3 119.32 130.29 119.33 130.24 118.69C129.99 115.48 132.25 112.61 135.48 112.25C136.12 112.18 136.12 111.33 135.48 111.26C132.25 110.9 129.99 108.03 130.24 104.82C130.26 104.55 130 104.32 129.74 104.32H129.68C129.43 104.32 129.16 104.55 129.18 104.82C129.43 108.03 127.17 110.9 123.94 111.26C123.3 111.33 123.3 112.18 123.94 112.25C127.17 112.61 129.43 115.48 129.18 118.69C129.13 119.33 130.12 119.32 130.17 118.69H130.19Z" fill="#040000"/>
<path d="M145.14 14.36C145.3 12.7 144.77 10.99 143.71 9.69998C142.65 8.40998 141.06 7.57998 139.4 7.41998C141.06 7.26998 142.65 6.42998 143.71 5.13998C144.77 3.84998 145.3 2.13998 145.14 0.47998H145.2C145.04 2.13998 145.57 3.84998 146.63 5.13998C147.69 6.42998 149.28 7.25998 150.94 7.41998C149.28 7.56998 147.69 8.40998 146.63 9.69998C145.57 10.99 145.04 12.7 145.2 14.36" fill="#EBB827"/>
<path d="M145.63 14.36C145.92 10.57 143.14 7.34999 139.39 6.92999V7.91999C143.13 7.49999 145.92 4.27999 145.63 0.48999L145.13 0.98999H145.19C145.02 0.81999 144.86 0.65999 144.69 0.48999C144.4 4.27999 147.18 7.49999 150.93 7.91999V6.92999C147.19 7.34999 144.4 10.57 144.69 14.36C144.74 14.99 145.73 15 145.68 14.36C145.43 11.15 147.69 8.27999 150.92 7.91999C151.56 7.84999 151.56 6.99999 150.92 6.92999C147.69 6.56999 145.43 3.69999 145.68 0.48999C145.7 0.21999 145.44 -0.0100098 145.18 -0.0100098H145.12C144.87 -0.0100098 144.6 0.21999 144.62 0.48999C144.87 3.69999 142.61 6.56999 139.38 6.92999C138.74 6.99999 138.74 7.84999 139.38 7.91999C142.61 8.27999 144.87 11.15 144.62 14.36C144.57 15 145.56 14.99 145.61 14.36H145.63Z" fill="#040000"/>
<path d="M153.8 18.43C153.88 17.6 153.62 16.74 153.08 16.1C152.54 15.46 151.76 15.04 150.93 14.96C151.76 14.88 152.55 14.46 153.08 13.82C153.61 13.18 153.87 12.32 153.8 11.49H153.83C153.75 12.32 154.01 13.18 154.55 13.82C155.09 14.46 155.87 14.88 156.7 14.96C155.87 15.04 155.08 15.46 154.55 16.1C154.02 16.74 153.76 17.6 153.83 18.43" fill="#EBB827"/>
<path d="M154.08 18.43C154.23 16.51 152.82 14.89 150.93 14.68V15.25C152.82 15.04 154.23 13.42 154.08 11.5L153.8 11.78H153.83C153.74 11.69 153.64 11.59 153.55 11.5C153.4 13.42 154.81 15.04 156.7 15.25V14.68C154.81 14.89 153.4 16.51 153.55 18.43C153.58 18.79 154.14 18.79 154.12 18.43C154 16.85 155.11 15.42 156.71 15.25C157.07 15.21 157.07 14.72 156.71 14.68C155.11 14.5 154 13.08 154.12 11.5C154.13 11.35 153.98 11.22 153.84 11.22H153.81C153.67 11.22 153.51 11.35 153.53 11.5C153.65 13.08 152.54 14.51 150.94 14.68C150.58 14.72 150.58 15.21 150.94 15.25C152.54 15.43 153.65 16.85 153.53 18.43C153.5 18.79 154.07 18.79 154.1 18.43H154.08Z" fill="#040000"/>
</g>
<defs>
<clipPath id="clip0_35_1994">
<rect width="156.97" height="119.16" fill="white"/>
</clipPath>
</defs>
</svg>
